<?xml version="1.0" encoding="UTF-8" standalone="no"?>
<svg
   xmlns:dc="http://purl.org/dc/elements/1.1/"
   xmlns:cc="http://creativecommons.org/ns#"
   xmlns:rdf="http://www.w3.org/1999/02/22-rdf-syntax-ns#"
   xmlns:svg="http://www.w3.org/2000/svg"
   xmlns="http://www.w3.org/2000/svg"
   xmlns:sodipodi="http://sodipodi.sourceforge.net/DTD/sodipodi-0.dtd"
   xmlns:inkscape="http://www.inkscape.org/namespaces/inkscape"
   width="115.85975"
   height="100"
   viewBox="0 0 115.85975 100"
   version="1.1"
   id="svg3773"
   sodipodi:docname="CyberYozh.svg"
   style="fill:none"
   inkscape:version="0.92.3 (2405546, 2018-03-11)">
  <metadata
     id="metadata3779">
    <rdf:RDF>
      <cc:Work
         rdf:about="">
        <dc:format>image/svg+xml</dc:format>
        <dc:type
           rdf:resource="http://purl.org/dc/dcmitype/StillImage" />
        <dc:title></dc:title>
      </cc:Work>
    </rdf:RDF>
  </metadata>
  <defs
     id="defs3777" />
  <sodipodi:namedview
     pagecolor="#ffffff"
     bordercolor="#666666"
     borderopacity="1"
     objecttolerance="10"
     gridtolerance="10"
     guidetolerance="10"
     inkscape:pageopacity="0"
     inkscape:pageshadow="2"
     inkscape:window-width="1366"
     inkscape:window-height="706"
     id="namedview3775"
     showgrid="false"
     fit-margin-top="0"
     fit-margin-left="0"
     fit-margin-right="0"
     fit-margin-bottom="0"
     inkscape:zoom="1.7226721"
     inkscape:cx="128.61178"
     inkscape:cy="45"
     inkscape:window-x="-8"
     inkscape:window-y="-8"
     inkscape:window-maximized="1"
     inkscape:current-layer="svg3773" />
  <g
     id="g3803">
    <circle
       id="circle3747"
       r="50"
       cy="50"
       cx="50"
       style="fill:#ffffff" />
    <path
       id="path3751"
       d="m 44.8788,78.8937 c 0.0263,0.0091 0.0546,0.0188 0.0846,0.0292 0.6515,0.2251 2.15,0.7427 3.0377,0.8144 7.3613,0.6158 5.7537,-5.8882 4.0603,-7.9065 -0.0389,0.0173 -0.0922,0.0391 -0.1588,0.0663 -0.9489,0.3881 -4.5849,1.8751 -7.1145,6.9655 0.0269,0.0092 0.0572,0.0196 0.0907,0.0311 z"
       inkscape:connector-curvature="0"
       style="fill:#000000" />
    <path
       id="path3755"
       d="m 79.6139,40.6248 c 4.187,3.7129 4.7047,9.028 5.3833,13.7426 2.3865,-6.4843 4.0052,-12.5252 3.2064,-19.2138 6.2032,1.013 6.8397,8.3073 7.5183,13.0219 0.4755,7.8948 -7.5086,13.5283 -5.8269,21.7462 0.6785,4.7147 4.8656,8.4275 10.0198,8.5104 4.1002,0.6696 5.8112,-2.4092 7.5192,-5.604 0.02,-0.0113 0.026,-0.015 0.026,-0.015 0,0 -1.817,12.4292 -15.2736,10.2978 -8.0727,-1.2829 -9.9218,-18.5453 -9.9218,-18.5453 0,0 -8.3641,-0.3598 -18.023,-5.2693 9.0688,-0.546 18.7465,-8.7018 15.3723,-18.6715 z"
       inkscape:connector-curvature="0"
       style="fill:#b81929" />
    <path
       id="path3757"
       d="m 41.5247,40.2161 c 0.3873,-3.8679 1.8552,-6.9237 7.2641,-3.747 5.4089,3.1766 12.7328,11.2781 20.2314,15.5042 5.5822,3.146 11.3097,4.3946 13.4609,6.3848 -0.3363,6.4285 0.2884,12.658 3.4542,18.8477 C 83.3617,76.9563 74.3387,75.7708 62.2731,70.728 47.9127,64.7238 38.1673,60.8143 37.8091,58.1273 c -0.3582,-2.6869 1.9278,-4.1152 2.117,-6.3199 0.3371,-3.9474 1.2178,-7.7271 1.6037,-11.5899 z"
       inkscape:connector-curvature="0"
       style="fill:#ffffff" />
    <path
       id="path3761"
       d="m 114.663,74.303 c -2.713,4.3998 -8.818,5.278 -11.058,0.046 -2.238,-5.2371 2.574,-10.0153 7.504,-9.6513 4.931,0.3639 5.853,5.892 3.553,9.6105 z"
       inkscape:connector-curvature="0"
       style="fill:#e9e9f3" />
    <g
       id="g3790">
      <g
         id="g3783">
        <path
           id="path3749"
           d="M 99.8093,54.397 C 99.9356,52.9481 100,51.4816 100,50 100,22.3858 77.6142,0 50,0 22.3858,0 0,22.3858 0,50 c 0,27.6142 22.3858,50 50,50 4.2994,0 8.4721,-0.5427 12.4533,-1.5632 -5.7757,-1.3629 -13.8046,-3.3189 -17.1223,-4.4153 -3.6201,-1.1964 -9.0831,-4.4794 -11.9929,-7.4572 -0.5598,-0.4042 -1.1007,-0.8241 -1.5927,-1.2746 -1.512,-1.3946 -5.9508,-7.2984 -2.0784,-8.3341 0.6077,-0.1605 1.2129,0.0515 1.8477,0.274 0.6677,0.2339 1.368,0.4793 2.1383,0.3145 1.2725,-0.2723 2.5356,-0.9245 3.6286,-1.6361 2.1198,-1.3792 3.8154,-3.3623 5.142,-5.5479 1.1664,-1.9224 3.3347,-5.5889 3.1843,-8.0222 0,0 -0.3679,-5.9183 -5.7272,-11.4321 2.2237,-0.1089 10.8806,2.4546 13.4096,3.9561 1.2639,-7.1276 -4.9223,-16.2759 -6.9084,-18.3999 3.6604,0.1224 14.3257,6.3908 19.02,13.8973 2.3383,-2.9996 3.3911,-15.6897 2.4188,-22.2324 5.8649,4.0168 8.2731,13.1495 9.8987,21.2134 3.2502,-1.3142 10.6759,-9.7308 11.2772,-15.3162 4.1503,6.5647 2.2151,14.3293 -0.1336,19.582 0.1267,0.0304 0.2736,0.0668 0.4383,0.1076 2.1799,0.54 7.4903,1.8554 10.5158,0.4193 -0.0024,0.0881 -0.005,0.1761 -0.0078,0.264 z"
           inkscape:connector-curvature="0"
           style="fill:#000000" />
        <path
           id="path3753"
           d="m 60.8717,57.4197 c -7.216,-4.398 -17.6553,-8.2019 -14.9728,-17.4123 2.6824,-9.2105 10.2421,-7.614 16.0548,-16.4147 5.8077,-8.8022 15.6622,-10.3094 30.0822,-5.1639 14.4261,5.1418 20.9891,21.5439 19.3571,27.6362 -1.632,6.0922 -16.5031,26.2788 -13.3157,28.4256 3.1827,2.1455 9.3887,-1.6761 9.3887,-1.6761 0,0 -1.818,12.4292 -15.2796,10.2964 -8.0727,-1.2829 -9.9219,-18.5453 -9.9219,-18.5453 0,0 -10.394,-0.4416 -21.3928,-7.1459 z"
           inkscape:connector-curvature="0"
           style="fill:#e42335" />
      </g>
      <path
         d="m 71.4054,68.8567 c -4.0261,-4.3134 -8.1659,-10.6045 -6.7095,-16.0398 0.2544,-0.9495 1.3295,-1.5746 2.6859,-1.8327 0.5445,0.3494 1.0931,0.6834 1.6435,0.9904 5.5821,3.146 11.3096,4.3947 13.4608,6.3848 -0.3363,6.4286 0.2885,12.658 3.4543,18.8477 -2.4398,-0.2356 -10.6668,-1.3124 -21.7971,-5.7195 -0.9471,-2.5421 -1.6295,-5.1894 -2.0288,-7.8874 -0.0923,-0.6408 0.7104,-1.0088 1.1432,-0.5298 2.2888,2.5441 5.4733,4.0245 8.1515,5.7928 z"
         id="path3759"
         inkscape:connector-curvature="0"
         style="fill:#d2d2db" />
      <path
         d="m 105.218,70.5456 c 1.877,-4.5415 8.428,0.7179 8.788,-3.4985 0.115,-0.4312 0.084,-0.8686 -0.043,-1.2987 2.326,1.8501 2.449,5.7227 0.7,8.5546 -2.428,3.9316 -7.558,5.0491 -10.221,1.5024 -0.217,-1.7579 0.078,-3.6811 0.776,-5.2598 z"
         id="path3763"
         inkscape:connector-curvature="0"
         style="fill:#d2d2db" />
    </g>
  </g>
</svg>
