<svg id="Capa_1" enable-background="new 0 0 501 501" height="512" viewBox="0 0 501 501" width="512" xmlns="http://www.w3.org/2000/svg"><path d="m59 409.971c-36.778-42.856-59-98.568-59-159.471 0-135.31 109.69-245 245-245s245 109.69 245 245c0 60.942-22.251 116.688-59.072 159.555-53.011-26.746-117.064-42.382-186.047-42.382-68.912 0-132.902 15.603-185.881 42.298z" fill="#0571b3"/><path d="m431 152.785v257.187c-44.933 52.358-111.593 85.528-186 85.528s-141.067-33.17-186-85.529v-345.471c0-11.046 8.954-20 20-20h243.716c5.304 0 10.391 2.107 14.142 5.858l88.284 88.285c3.751 3.75 5.858 8.837 5.858 14.142z" fill="#ececf1"/><path d="m331 134.5v-88.203c2.16.983 4.148 2.351 5.858 4.061l88.284 88.285c1.71 1.71 3.078 3.698 4.061 5.857h-88.203c-5.523 0-10-4.477-10-10zm-252-90c-11.046 0-20 8.954-20 20v345.471c9.14 10.651 19.179 20.507 30 29.453v-374.924c0-11.046 8.954-20 20-20z" fill="#d3d3d8"/><path d="m199 114.5c0 5.523-4.477 10-10 10h-60c-5.523 0-10-4.477-10-10s4.477-10 10-10h60c5.523 0 10 4.477 10 10z" fill="#a1a1a7"/><path d="m140 254.5c0-5.523 4.477-10 10-10h170c5.523 0 10 4.477 10 10s-4.477 10-10 10h-170c-5.523 0-10-4.477-10-10zm199 30h-189c-5.523 0-10 4.477-10 10s4.477 10 10 10h189c5.523 0 10-4.477 10-10s-4.477-10-10-10zm-189-60h60c5.523 0 10-4.477 10-10s-4.477-10-10-10h-60c-5.523 0-10 4.477-10 10s4.477 10 10 10zm100 0h90c5.523 0 10-4.477 10-10s-4.477-10-10-10h-90c-5.523 0-10 4.477-10 10s4.477 10 10 10zm-1 100h-99c-5.523 0-10 4.477-10 10 0 5.522 4.477 10 10 10h99c5.523 0 10-4.478 10-10 0-5.523-4.477-10-10-10zm40 0c-5.523 0-10 4.477-10 10s4.477 10 10 10 10-4.477 10-10-4.477-10-10-10z" fill="#babac0"/><path d="m501 386.5c0 60.199-48.801 109-109 109s-109-48.801-109-109 48.801-109 109-109 109 48.801 109 109z" fill="#fd4343"/><path d="m473.501 458.879c-19.966 22.467-49.081 36.621-81.501 36.621-60.199 0-109-48.801-109-109 0-32.42 14.155-61.535 36.621-81.501-3.061 10.81-4.699 22.218-4.699 34.008 0 68.799 55.772 124.571 124.571 124.571 11.79.001 23.198-1.638 34.008-4.699z" fill="#d73131"/><path d="m434.364 351.816v5.321c0 14.349-7.128 27.667-19.067 35.625-4.767 3.178-7.613 8.497-7.613 14.227 0 8.284-6.716 15-15 15s-15-6.716-15-15c0-15.784 7.84-30.434 20.973-39.188 3.574-2.382 5.707-6.368 5.707-10.663v-5.321c0-7.067-5.749-12.816-12.816-12.816-6.568 0-11.912 5.344-11.912 11.912 0 8.284-6.716 15-15 15s-15-6.716-15-15c0-23.11 18.802-41.912 41.912-41.912 23.609-.001 42.816 19.206 42.816 42.815zm-41.595 82.184c-8.284 0-15 6.716-15 15s6.716 15 15 15 15-6.716 15-15-6.715-15-15-15z" fill="#fde0b8"/><path d="m434.364 352.593v4.45c0 14.22-6.792 27.88-18.778 35.531-2.366 1.51-4.278 3.539-5.628 5.886-2.715 4.718-7.576 7.791-13.019 7.791h-.52c-11.267 0-18.348-12.084-12.92-21.957 3.572-6.497 8.685-12.151 15.048-16.419 3.585-2.405 5.818-6.364 5.818-10.681v-5.377c0-7.296-6.129-13.188-13.509-12.797-6.21.328-11.103 5.969-11.222 12.188-.157 8.177-6.858 14.752-15.084 14.706-8.429-.048-15.071-7.408-14.905-15.835.469-23.879 21.009-42.927 45.409-40.934 22.354 1.825 39.31 21.019 39.31 43.448z" fill="#fff5f5"/></svg>