<svg width="64" height="64" viewBox="0 0 64 64" fill="none" xmlns="http://www.w3.org/2000/svg"><path d="M42.1543 1.54528C29.2456 -2.51353 15.0693 1.59698 6.6641 11.8349C-1.58818 22.1671 -2.23362 36.3429 5.04809 47.3258C8.25188 52.0614 12.7655 55.86 18.0903 58.3022C18.1745 58.4398 18.309 58.4555 18.5703 58.569V58.5201C25.0596 61.3991 32.3736 62.1187 39.3423 60.5638C40.6801 60.2556 41.9961 59.8671 43.2826 59.4007C43.391 59.3601 43.4955 59.3121 43.5942 59.2558C54.4844 55.1111 62.1899 45.6458 63.744 34.5078C63.9511 32.9459 64.0333 31.3721 63.9878 29.7982C63.5205 16.9488 54.8347 5.71025 42.1543 1.54528ZM25.9633 51.6228C26.989 51.5554 28.0041 51.3735 28.9863 51.0809C30.955 50.3728 32.9754 49.8033 35.0313 49.3769C36.2603 49.183 39.3336 48.7953 39.4265 50.6212C40.5043 50.1949 41.6367 49.9068 42.794 49.7646C42.6178 49.8532 42.4582 49.9584 42.2811 50.0471C37.2368 52.4906 31.4186 53.0525 25.9633 51.6228ZM43.78 49.256C43.5581 49.2145 43.3326 49.1929 43.1065 49.1914C42.4547 49.2082 41.8085 49.3116 41.1867 49.4987C40.846 49.6409 40.4899 49.7461 40.1251 49.8126C39.8977 49.9991 39.7555 49.9511 39.6964 49.6926C39.6149 49.5743 39.5188 49.4658 39.41 49.3695C37.7263 47.851 34.173 48.884 32.2609 49.4249C29.5417 50.1929 26.931 51.4926 24.0183 50.9757C23.8664 50.9757 23.7231 50.9111 23.5799 50.8797C20.7681 49.8362 18.2094 48.2556 16.0611 46.2347C9.51872 40.0233 7.52629 30.6401 11.0157 22.4689C14.5051 14.2977 22.7864 8.95121 31.9919 8.92721C33.0853 8.92721 34.1759 9.00106 35.2587 9.14506C44.1709 10.3931 51.4768 16.5704 53.8834 24.8957C56.4603 34.2632 52.3613 44.1467 43.78 49.256Z" fill="#0066B3"></path><path d="M31.9918 52.9877C22.5725 53.0172 14.0667 47.5886 10.4573 39.2429C6.8479 30.8982 8.84807 21.288 15.5221 14.9122C18.7682 11.7745 22.925 9.63593 27.4568 8.77219C31.9886 7.90845 36.6877 8.35907 40.9485 10.066C49.6634 13.558 55.3058 21.7643 55.2217 30.8235C55.0678 41.6227 46.9413 50.7944 35.8567 52.6803C34.577 52.8875 33.2811 52.9903 31.9831 52.9877H31.9918ZM31.9831 53.5443C42.0285 53.5369 50.99 47.4861 54.3875 38.4177C57.785 29.3493 54.8898 19.211 47.1474 13.0706C43.3577 10.055 38.6766 8.24137 33.7558 7.88235C28.8349 7.52332 23.9192 8.63671 19.6927 11.0676C11.0244 16.0495 6.57211 25.7336 8.58389 35.234C10.8279 45.9159 20.6323 53.5849 31.9918 53.5443" fill="white"></path><path d="M54.5745 48.1067C54.2455 47.5972 53.901 47.1043 53.5556 46.604L52.8231 47.492L54.5745 48.1067ZM50.9961 47.719C50.4397 47.5492 51.1558 46.9104 51.5186 46.9917C51.8796 47.0729 51.9386 47.3147 52.2502 47.2261C52.4021 47.1772 52.5957 46.8624 52.6886 46.7572C53.0505 46.3049 53.2276 46.16 52.9072 45.691C52.7137 45.4169 52.5705 45.3356 52.7815 45.0209C52.9914 44.7061 53.0843 44.7624 53.3282 44.9322C53.841 45.2793 54.0694 46.0704 54.4139 46.5476C54.7594 47.024 55.5683 47.767 55.3574 48.4455C55.071 49.2532 54.0268 48.8572 53.4549 48.6311C52.646 48.2757 51.8206 48.0015 50.9961 47.7181V47.719ZM54.8687 44.1319C55.189 44.3018 55.7106 43.9787 55.8964 43.7202C56.0812 43.4618 55.9806 43.2439 55.6438 43.0501C55.3071 42.8562 55.0632 42.6541 54.8019 43.0501C54.5407 43.4461 54.4149 43.8578 54.86 44.1319H54.8697H54.8687ZM54.4904 44.8759C53.4375 44.3101 53.993 43.1867 54.44 42.4519C54.7845 41.8464 55.0119 41.8464 55.6525 42.1621C56.2912 42.4759 56.6966 42.7759 57.2434 43.0418C57.7911 43.3085 58.4046 43.4941 58.2788 44.0756C58.1056 44.5455 57.8733 44.9922 57.5888 45.4086C57.3866 45.7399 56.8979 46.2892 56.6966 45.643C56.536 45.1584 57.2521 44.5122 57.4795 44.1329C57.3024 44.0433 56.7973 43.6399 56.6376 43.6962C56.477 43.7525 56.2505 44.1652 56.1489 44.2944C55.7106 44.8593 55.3071 45.3116 54.5329 44.9073L54.4904 44.875V44.8759ZM55.4754 41.0387C55.3071 40.9741 55.4754 40.5217 55.5335 40.4248C55.7445 40.159 55.9641 40.2153 56.3009 40.2236C56.8902 40.2236 57.5385 40.2236 57.7408 39.5931C57.3111 39.4556 55.9796 39.3753 56.057 38.7208C56.2167 37.7109 58.481 39.6014 58.0185 38.2279C57.8666 37.7682 57.2521 37.6463 56.9318 37.3315C56.6125 37.0168 56.5612 36.5728 56.9318 36.4103C57.5046 36.1768 58.6155 37.5734 58.6155 38.0257C58.875 37.8198 59.1826 37.6763 59.5123 37.6076C59.8421 37.5388 60.1843 37.5467 60.5102 37.6306C60.5893 37.665 60.6572 37.7191 60.7067 37.7873C60.7563 37.8554 60.7856 37.935 60.7916 38.0177C60.7977 38.1004 60.7802 38.1832 60.7411 38.2572C60.7019 38.3312 60.6426 38.3938 60.5693 38.4383C60.3254 38.5999 59.8454 38.4383 59.559 38.4946C59.2726 38.5509 58.1694 38.7854 58.902 39.2054C59.1545 39.343 60.7376 39.4962 59.9964 40.1663C59.5513 40.5707 58.9358 39.763 58.4559 39.8839C57.6817 40.0777 58.8526 40.9094 59.1294 41.1033C59.4071 41.2971 59.6267 41.4513 59.4584 41.8224C59.29 42.1934 59.1545 42.1611 58.8429 42.0319C58.3005 41.7266 57.9002 41.2359 57.7233 40.6593C57.3978 40.8955 57.0182 41.0547 56.6156 41.1235C56.213 41.1924 55.799 41.169 55.4077 41.0553L55.4754 41.0387ZM58.2536 34.9251C57.9974 34.8162 57.7726 34.6499 57.5982 34.4403C57.4238 34.2307 57.3051 33.9841 57.2521 33.7214C57.2521 33.39 57.4456 32.8324 57.883 32.8647C58.5488 32.8647 57.9759 33.39 58.0436 33.6724C58.1617 34.1737 58.8855 33.8183 59.1884 33.6724C59.4913 33.5275 62.0517 32.405 61.5205 33.5026C61.176 34.2226 59.8367 34.3112 59.1207 34.4404C59.739 34.7063 60.3399 35.0063 60.9234 35.3358C61.2428 35.5389 61.5127 36.0392 60.9815 36.2331C60.6534 36.3457 60.1396 35.8777 59.8783 35.7245C59.3568 35.4337 58.8178 35.1669 58.2875 34.8761L58.2536 34.9251ZM57.5637 31.6943C57.3779 31.6943 57.3779 31.0638 57.4379 30.9742C57.6217 30.7407 58.3717 30.8542 58.6494 30.845C59.1632 30.845 60.6709 31.0804 60.8896 30.5552C61.2679 29.6588 59.9712 29.8527 59.4497 29.7475C58.9271 29.6422 56.924 29.3598 57.3276 28.3656C57.3494 28.2742 57.4069 28.1942 57.4883 28.1418C57.5697 28.0893 57.6689 28.0684 57.7659 28.0831C58.1443 28.1478 57.942 28.301 58.153 28.4708C58.5284 28.7441 58.9794 28.9075 59.4497 28.9398C60.1822 29.0524 61.4789 28.8022 61.5882 29.7475C61.6637 30.377 61.8408 31.4275 61.0918 31.637C60.5552 31.7057 60.0114 31.7057 59.4748 31.637C58.8768 31.613 58.2362 31.6453 57.5975 31.6693L57.5637 31.6933V31.6943ZM57.8666 27.5902C57.134 27.7287 56.8989 26.6302 56.9066 26.1363C56.9177 25.7929 57.0369 25.4607 57.2487 25.1828C57.4604 24.9049 57.755 24.6942 58.094 24.5782C58.4944 24.3881 58.9421 24.307 59.3877 24.344C59.8333 24.381 60.2596 24.5345 60.6196 24.7877C61.1644 25.2493 61.4034 25.9582 61.2427 26.6376C61.1421 26.8471 60.7628 27.2431 60.4851 27.0419C60.2073 26.8388 60.4851 26.525 60.4851 26.2342C60.4867 26.0792 60.4524 25.9257 60.3847 25.7848C60.3169 25.6439 60.2174 25.519 60.0932 25.4191C59.9695 25.3196 59.8241 25.2476 59.6676 25.2083C59.5111 25.169 59.3474 25.1635 59.1884 25.192C58.5739 25.192 57.7408 25.5068 57.673 26.1936C57.6304 26.573 58.4733 27.437 57.8666 27.5339V27.5902ZM57.7069 18.0676C57.5298 17.7529 57.3876 17.3006 56.9657 17.2599C56.5447 17.2193 56.3928 17.4132 56.3425 17.7446C56.3425 17.9467 56.4015 18.4803 56.6037 18.5523C56.806 18.6252 57.5298 18.2135 57.7408 18.0999L57.7069 18.0676ZM55.1213 20.3375C54.8436 20.4584 54.6762 19.7966 54.7342 19.6424C54.8774 19.2953 55.7696 19.0775 56.0812 18.9076C56.0138 18.7356 55.8933 18.5871 55.7355 18.4818C55.5778 18.3764 55.3903 18.3193 55.1977 18.3178C54.7429 18.3178 54.0268 18.6981 53.6814 18.2052C53.1511 17.4464 55.2984 17.3975 55.6777 17.7289C55.6347 17.5942 55.6231 17.4523 55.6436 17.3129C55.6642 17.1736 55.7164 17.0402 55.7967 16.9221C55.9593 16.683 56.2244 16.5252 56.5196 16.4929C56.8485 16.4725 57.1761 16.5482 57.4589 16.7098C57.7417 16.8714 57.9662 17.1112 58.1027 17.3975C58.5991 18.1406 58.6494 18.5929 57.7824 19.0129C56.9153 19.4329 56.0309 19.9092 55.1551 20.3698L55.1213 20.3375ZM54.7255 13.827C54.1284 14.0051 53.5469 14.2147 52.9663 14.4178L53.6727 15.3298L54.7255 13.8279V13.827ZM53.4879 17.0578C53.2943 17.3255 53.0427 17.1224 52.916 16.9212C52.7902 16.719 52.8647 16.5085 53.0001 16.2584C53.303 15.7175 53.303 15.7092 52.8569 15.1922C52.4108 14.6753 52.4186 14.6836 51.7954 14.8535C51.1722 15.0224 50.7513 14.5054 51.3919 14.1261C51.988 13.8842 52.6053 13.6922 53.2353 13.5528C53.7994 13.3433 54.7255 12.7451 55.2896 13.2214C55.8538 13.6987 55.2896 14.4981 54.9529 14.9744C54.4226 15.6612 53.9514 16.3636 53.4714 17.0661L53.4879 17.0578ZM51.8041 11.1777C52.0567 10.9285 51.9222 10.67 51.7286 10.4346C51.4093 10.0312 51.3319 10.1365 51.0038 10.4752C50.6758 10.8149 50.5829 10.8149 50.9284 11.1214C51.2738 11.4288 51.5428 11.4694 51.7702 11.1777H51.8041ZM50.7184 12.567C51.0038 12.2845 50.8616 11.9697 50.6342 11.703C50.2375 11.2349 50.1794 11.2996 49.7923 11.703C49.4053 12.1073 49.3278 12.123 49.7923 12.4543C50.0778 12.6805 50.4407 12.9067 50.7687 12.5679H50.7184V12.567ZM51.4248 13.1245C51.2175 13.3234 50.9428 13.4455 50.6499 13.4692C50.3569 13.4929 50.0647 13.4165 49.8252 13.2537C49.4633 13.0682 48.7482 12.6325 48.6127 12.2365C48.4279 11.6873 49.0588 11.3079 49.4546 10.9359C49.8514 10.5648 50.1291 10.1845 50.4736 9.8134C50.819 9.44139 51.0542 9.21523 51.5012 9.34447C51.9451 9.58203 52.3119 9.93136 52.5618 10.3543C52.9914 11.0651 52.5618 12.3011 51.5351 11.8811C51.8215 12.2614 51.7867 12.783 51.4509 13.1245H51.4257H51.4248ZM48.0234 9.23923C48.4028 8.69831 48.604 7.93122 47.9228 7.51122C47.2406 7.09121 46.2894 7.77799 46.0029 8.48046C45.4388 9.8937 47.2657 10.3949 48.0234 9.23923ZM48.7898 9.67585C48.6066 9.95876 48.3483 10.1905 48.0411 10.3478C47.7339 10.505 47.3887 10.5821 47.0403 10.5712C46.6917 10.5597 46.3526 10.4608 46.0569 10.2843C45.7613 10.1078 45.5197 9.86002 45.3565 9.56601C45.1925 9.27115 45.1123 8.94047 45.1238 8.60686C45.1354 8.27325 45.2383 7.94834 45.4223 7.66445C46.9542 5.47581 50.3052 7.4226 48.7898 9.67585ZM45.4639 5.82289C45.2278 6.34813 44.6221 5.77489 44.3356 5.65396C43.8644 5.48412 43.8305 5.70196 43.6457 6.10628C43.367 6.71182 43.1822 7.34967 42.8454 7.93122C42.6596 8.2543 42.0955 8.92446 41.81 8.15738C41.6581 7.76968 42.1971 7.17983 42.3742 6.85675C42.6683 6.30013 42.8454 5.33827 43.3254 4.91826C43.8054 4.49826 44.0918 4.85365 44.563 5.03919C44.8746 5.16104 45.7001 5.35488 45.4639 5.84689V5.82289ZM40.4127 5.63735C40.5637 5.11211 40.5966 4.40964 40.0247 4.10318C39.2505 3.68317 38.6022 4.29703 38.3409 4.96719C38.0797 5.63735 38.0884 6.40443 38.8635 6.67951C39.6376 6.95367 40.2521 6.28351 40.4117 5.63735H40.4127ZM41.2546 5.82289C41.1152 6.53367 40.5675 7.10598 39.8418 7.30167C39.4857 7.39693 39.1086 7.39472 38.7537 7.29532C38.3989 7.19592 38.0804 7.00332 37.8348 6.73951C37.5883 6.47493 37.4238 6.15006 37.3599 5.80131C37.2959 5.45257 37.3351 5.09374 37.4729 4.76503C37.5595 4.43705 37.7369 4.13732 37.9867 3.89728C38.2365 3.65723 38.5493 3.48571 38.8925 3.40071C39.2353 3.31643 39.5956 3.32213 39.9352 3.41719C40.2749 3.51225 40.5813 3.69314 40.822 3.94071C41.3136 4.44472 41.48 5.16657 41.2536 5.82381L41.2546 5.82289ZM35.8821 6.50967C35.8821 6.71182 35.166 6.59828 35.0983 6.50967C35.0315 6.42105 35.0983 5.57273 35.1496 5.34658C35.1999 4.82134 35.6798 3.4164 35.0489 3.18194C34.2071 2.85886 34.2825 3.98964 34.1306 4.50657C33.9787 5.0235 33.3894 6.87336 32.4469 6.32413C31.9669 6.04166 32.3375 5.74258 32.5901 5.51642C32.9868 5.19519 33.2491 4.74749 33.3303 4.25641C33.4145 3.76902 33.5239 3.28717 33.6593 2.81086C33.8693 2.31793 34.1896 2.40654 34.6531 2.45547C35.3857 2.54408 36.244 2.35023 36.2692 3.26317C36.2382 3.69979 36.1724 4.13456 36.0756 4.56287C36.0505 5.22565 36.0079 5.87181 35.9401 6.50136L35.8821 6.50967ZM29.66 3.21424C29.4993 3.79579 29.3561 4.36903 29.2052 4.95057L30.3838 4.87026L29.66 3.21424ZM31.7985 6.00104C32.0008 6.50967 31.1328 6.42843 30.9567 6.18658C30.7796 5.94381 30.8976 5.61335 30.6276 5.4675C30.434 5.42292 30.232 5.42292 30.0383 5.4675C29.7527 5.455 29.4672 5.49351 29.1965 5.58104C28.9023 5.74997 29.0368 5.8552 28.9352 6.15428C28.7504 6.6629 28.0933 6.84936 28.0933 6.15428C28.2269 5.41858 28.4214 4.6958 28.6739 3.98964C28.792 3.4404 28.8597 2.52747 29.5835 2.42316C30.3083 2.31793 30.5947 3.14963 30.796 3.68317C31.0999 4.44195 31.4444 5.20904 31.7985 5.98443V6.00104ZM27.1837 6.6149C27.2689 6.89736 26.5025 6.89736 26.3418 6.79213C25.9886 6.53367 26.2325 5.84689 26.0051 5.52473C25.7777 5.20165 25.7109 5.30596 25.2726 5.3955C24.9948 5.45088 24.5323 5.3955 24.4307 5.70196C24.3301 6.00843 24.6833 6.50967 24.7423 6.73582C24.8013 6.96198 24.692 7.68845 24.153 7.43829C23.884 7.30906 23.8414 6.80875 23.7911 6.56597C23.673 6.04905 23.555 5.52473 23.404 5.00688C23.3024 4.64411 22.8815 3.92502 23.2008 3.58533C23.6314 3.11732 23.942 3.69887 24.0427 4.02195C24.1868 4.55457 24.0852 4.91826 24.7171 4.88596C24.9532 4.88596 25.559 4.74842 25.7109 4.53057C25.8619 4.31272 25.5174 3.81148 25.4661 3.52071C25.3906 3.00378 25.8116 2.56808 26.2664 3.08501C26.5276 3.38409 26.5102 3.97302 26.5857 4.32841C26.7628 5.0798 26.9902 5.8395 27.1837 6.59921V6.6149ZM16.8364 6.97767C16.4319 7.22875 15.4469 8.01153 16.4319 8.33461C16.7339 8.38999 17.0454 8.30692 17.2738 8.10845C17.5515 7.85922 17.4586 8.02814 17.358 7.71337C17.2158 7.4488 17.0403 7.20175 16.8355 6.97767H16.8364ZM19.362 9.30385C19.4975 9.52262 18.8318 9.77278 18.6973 9.74047C18.4273 9.65924 18.2928 9.23185 18.1747 9.02139C17.6106 8.01984 17.148 9.02139 17.3328 9.74047C17.4335 10.1365 17.6019 10.4836 17.207 10.7826C16.8103 11.0817 16.76 10.9922 16.5839 10.7014C16.3444 10.1369 16.3444 9.50562 16.5839 8.94108C16.4483 8.99237 16.3025 9.01418 16.1571 9.00492C16.0116 8.99565 15.8701 8.95555 15.743 8.88754C15.6156 8.81921 15.5056 8.72485 15.421 8.61122C15.3363 8.49759 15.2791 8.36751 15.2533 8.2303C15.1643 7.57768 15.4972 6.93798 16.0952 6.6149C16.8364 6.08966 17.3077 6.00843 17.8293 6.80875C18.3518 7.60814 18.8569 8.48876 19.362 9.30477V9.30385ZM12.6261 10.1605C12.8535 10.718 13.1148 11.2589 13.3586 11.7759L14.2431 11.0171L12.6261 10.1605ZM16.0778 11.1297C16.6003 11.3965 15.7749 11.8645 15.4294 11.7602C15.0849 11.655 15.0762 11.3799 14.7559 11.4122C14.5963 11.4122 14.3437 11.7113 14.2431 11.7999C13.8047 12.1876 13.6112 12.3011 13.8386 12.818C13.9741 13.1162 14.0999 13.2214 13.8386 13.4965C13.5773 13.7707 13.4931 13.6987 13.2831 13.4965C12.8448 13.0682 12.7606 12.2522 12.509 11.7113C12.2555 11.1703 11.582 10.3303 11.91 9.73216C12.331 8.92446 13.2909 9.55493 13.8134 9.8697C14.546 10.3137 15.3123 10.718 16.07 11.1297H16.0778ZM12.7945 14.3042C12.9377 14.4094 12.6096 14.7971 12.5419 14.8368C12.2894 14.9744 12.1877 14.8368 11.9516 14.7076C11.7165 14.5784 11.1775 13.8999 10.9501 13.8999C10.8659 13.8999 10.563 14.2959 10.4953 14.3605C10.1169 14.7648 9.88953 14.9661 10.3269 15.3704C10.6133 15.6362 11.3459 15.8707 11.2868 16.275C11.1775 16.9775 10.5466 16.5658 10.2514 16.323C9.70471 15.8707 9.12314 15.4184 8.5677 15.015C8.23095 14.7888 7.30489 14.3042 7.96097 13.8676C8.61898 13.4319 9.08153 14.3522 9.45118 14.6356C9.8305 14.1907 10.6646 13.6737 10.0744 13.1891C9.75503 12.9233 8.75252 12.519 9.48505 12.026C9.95727 11.7113 10.5127 12.398 10.8243 12.6805C11.4223 13.286 12.121 13.7873 12.7945 14.3042ZM8.78639 17.6403C8.17192 17.3246 7.10265 18.2458 7.94452 18.7295C8.1187 18.8403 8.30836 18.9252 8.50867 18.9806C8.82026 19.0212 8.62672 19.0941 8.86187 18.843C8.94696 18.7637 9.01364 18.6683 9.05761 18.5629C9.10158 18.4574 9.12184 18.3443 9.1171 18.231C9.11236 18.1176 9.08271 18.0064 9.03007 17.9047C8.97744 17.8029 8.90299 17.7128 8.81155 17.6403H8.78639ZM9.17346 16.8806C10.2427 17.4704 9.80535 18.9889 9.12314 19.732C8.68575 20.2166 8.28127 19.7966 7.83517 19.5381C7.17812 19.1504 6.48818 18.819 5.80597 18.4803C5.46922 18.3104 4.9641 17.8581 5.58728 17.559C6.21045 17.2599 6.50463 18.2292 6.98459 18.0926C7.24586 18.0187 7.57487 17.3329 7.77614 17.1233C8.10225 16.6996 8.71478 16.5935 9.17346 16.8806ZM8.23095 21.1212C8.51738 21.2181 8.06257 21.832 7.91936 21.8717C7.77614 21.9123 7.22844 21.6464 6.98459 21.5486C6.28391 21.2137 5.543 20.9617 4.77831 20.7981C4.59638 21.0317 4.49671 21.3141 4.49188 21.6058C4.61864 22.0175 5.92403 22.3646 6.29464 22.5908C6.70397 22.7966 7.03394 23.1215 7.23715 23.5194C7.36295 23.8268 7.481 24.4 6.98556 24.424C6.48818 24.4489 6.51334 23.8591 6.31109 23.6163C6.01369 23.3191 5.6475 23.0925 5.24182 22.9545C4.67767 22.7043 3.67516 22.4458 3.65871 21.7425C3.65871 21.2588 4.1977 20.0384 4.71154 19.9664C5.2244 19.8926 5.81468 20.3209 6.21046 20.4501L8.23095 21.1212ZM3.36357 26.153C3.89482 26.452 4.45027 26.7179 4.99797 27.0013L5.19924 25.8862L3.36454 26.153H3.36357ZM6.73203 24.844C7.29618 24.772 7.00975 25.5714 6.73203 25.7006C6.45431 25.8299 6.13401 25.6203 5.89016 25.8299C5.79629 25.9997 5.74501 26.1871 5.73823 26.3791C5.62889 26.9607 5.53599 27.1868 6.06724 27.5099C6.32851 27.6391 6.46302 27.6225 6.50463 27.9465C6.5472 28.2696 6.42044 28.3822 6.15917 28.3988C5.52825 28.3988 4.69412 27.5902 4.12997 27.3557C3.56582 27.1222 2.60589 26.8554 2.5217 26.2093C2.40461 25.4016 3.36357 25.3046 3.9703 25.2317C4.8712 25.1191 5.7721 25.0222 6.68171 24.844H6.73203ZM3.49034 29.4964C3.39368 29.4962 3.29807 29.5154 3.20971 29.5528C3.12135 29.5902 3.04223 29.6449 2.97747 29.7133C2.91231 29.7819 2.8629 29.8628 2.8324 29.9507C2.80191 30.0386 2.791 30.1316 2.80039 30.2238C2.80039 30.5062 2.7491 30.4416 2.91748 30.5625C3.13424 30.6327 3.36357 30.6576 3.59098 30.6364C4.68638 30.6844 4.24899 29.5287 3.49034 29.4964ZM3.49034 28.6887C3.75726 28.6829 4.01925 28.7579 4.23866 28.903C4.45808 29.0482 4.62363 29.2559 4.71154 29.4964C4.87991 29.8933 4.71154 30.5469 5.14021 30.6918C5.56986 30.8376 6.07498 30.4582 6.32754 30.8053C6.70687 31.3222 6.07595 31.5401 5.71307 31.5161C5.03087 31.5161 4.34866 31.4432 3.66742 31.4358C3.1623 31.4358 2.37849 31.637 2.15979 31.0721C1.82304 30.1832 2.40461 28.649 3.49034 28.697V28.6887ZM6.01595 32.5823C6.57236 32.5343 6.55495 33.8589 6.58881 34.1977C6.65655 35.1752 5.74694 35.0054 4.97281 35.0617C4.1977 35.1189 2.83426 35.6515 2.44719 34.9648C2.25269 34.6094 1.98271 33.269 2.44719 32.994C3.28906 32.453 2.89232 34.3103 3.09553 34.4561C3.41583 34.4986 3.74387 34.4506 4.03804 34.3186C4.13868 34.1977 4.03804 33.9392 4.03804 33.786C4.03804 33.6327 3.82709 33.1961 4.03804 33.0263C4.08924 32.9966 4.14685 32.9785 4.20649 32.9733C4.26613 32.9682 4.32622 32.976 4.3822 32.9963C4.43818 33.0166 4.48857 33.0488 4.52954 33.0905C4.57051 33.1321 4.60099 33.1821 4.61864 33.2367C4.75411 33.4952 4.48317 33.8829 4.71154 34.133C4.93894 34.3832 5.55341 34.182 5.89016 34.133C5.89016 33.786 5.39374 32.6312 6.03337 32.5176L6.01595 32.5823ZM3.73419 37.8974C3.9374 38.5676 3.8358 38.8177 4.57606 38.7042C5.32656 38.5141 6.11604 38.5141 6.86653 38.7042C6.72332 38.2196 6.71558 37.3316 6.17659 37.218C5.46051 37.0731 4.42511 37.7109 3.73419 37.8965V37.8974ZM7.65809 35.4734C7.95323 35.3848 7.92807 36.0872 7.76743 36.2091C7.60777 36.33 7.07749 36.1278 6.92556 36.4832C6.77461 36.8386 7.37166 38.0986 7.49842 38.5029C7.73357 39.2617 7.97839 38.6239 8.53383 38.7614C8.60531 38.7726 8.67238 38.8018 8.72816 38.8459C8.78394 38.89 8.82642 38.9474 8.85124 39.0123C8.87606 39.0773 8.88232 39.1473 8.8694 39.2153C8.85647 39.2833 8.82482 39.3468 8.77768 39.3993C8.37416 39.6153 7.92613 39.7427 7.46455 39.7703C7.04362 39.7223 6.79977 39.3919 6.3198 39.3919C5.56212 39.3919 4.49188 39.8682 3.79419 39.5857C3.35583 39.4159 3.37228 39.0042 3.27164 38.6165C3.17004 38.2288 2.79168 37.7026 3.04424 37.3555C3.54066 36.6697 5.1915 36.8959 5.88919 36.4915C6.29464 36.2571 5.99079 36.4352 6.18433 36.1038C6.37786 35.7725 6.27722 35.9017 6.60623 35.7725C6.95072 35.6534 7.30199 35.5537 7.65809 35.4734ZM7.86904 40.3196C8.41577 40.1017 8.78639 41.3534 8.93831 41.6931C9.35925 42.6458 8.1545 42.8396 7.45585 43.1304C6.9004 43.3648 5.88145 44.2381 5.30956 43.7285C4.88692 43.2104 4.59847 42.6044 4.46768 41.9599C4.80346 41.0876 5.35117 42.4602 5.44406 42.6467C5.53599 42.8313 5.59502 42.9448 5.85629 42.9365C6.11079 42.8959 6.3498 42.7888 6.5472 42.6301C6.75719 42.1861 5.84758 41.8224 6.10885 41.4024C6.55495 40.6593 7.06007 42.1371 7.16167 42.3476C7.65809 42.1214 8.26482 42.1048 8.08773 41.5399C7.9871 41.2168 7.24586 40.5947 7.83517 40.3362L7.86904 40.3196ZM8.49996 46.9427C8.80671 47.3674 9.41441 47.4717 9.85566 47.1772C10.2979 46.8827 10.4072 46.3003 10.1005 45.8775L8.49996 46.9427ZM8.32384 45.0781C8.22039 45.1406 8.13089 45.2221 8.06047 45.3177C7.99006 45.4133 7.94012 45.5212 7.91351 45.6352C7.8869 45.7493 7.88415 45.8672 7.90541 45.9823C7.92667 46.0974 7.97153 46.2073 8.03741 46.3058L9.63697 45.2147C9.48687 45.0359 9.27126 44.9181 9.03365 44.885C8.79604 44.852 8.55413 44.9061 8.35675 45.0366L8.32384 45.0772V45.0781ZM7.83517 44.407C8.08089 44.2398 8.3752 44.1499 8.67704 44.1499C8.97888 44.1499 9.2732 44.2398 9.51891 44.407C9.71245 44.5122 9.98243 44.7458 10.2098 44.7624C10.2776 44.7624 10.445 44.5602 10.6308 44.6175C11.2617 44.7864 10.8243 45.2304 10.7488 45.4243C10.6056 45.8452 11.0933 46.3861 10.9424 46.8947C10.8366 47.1859 10.6455 47.442 10.3916 47.6325C10.1377 47.8229 9.83175 47.9398 9.51021 47.9692C8.87929 48.0172 8.73607 47.5649 8.23095 47.3794C7.72582 47.1938 7.43939 47.6535 7.2207 47.1209C7.07749 46.7738 7.30489 46.7332 7.43939 46.58C7.57487 46.4267 7.14426 45.643 7.14426 45.4815C7.18103 45.0375 7.43746 44.6378 7.83517 44.407Z" fill="white"></path><path d="M31.9918 52.9877C22.5725 53.0172 14.0667 47.5886 10.4573 39.2429C6.8479 30.8982 8.84807 21.288 15.5221 14.9122C18.7682 11.7745 22.925 9.63593 27.4568 8.77219C31.9886 7.90845 36.6877 8.35907 40.9485 10.066C49.6634 13.558 55.3058 21.7643 55.2217 30.8235C55.0678 41.6227 46.9413 50.7944 35.8567 52.6803C34.577 52.8875 33.2811 52.9903 31.9831 52.9877H31.9918ZM31.9831 53.5443C42.0285 53.5369 50.99 47.4861 54.3875 38.4177C57.785 29.3493 54.8898 19.211 47.1474 13.0706C43.3577 10.055 38.6766 8.24137 33.7558 7.88235C28.8349 7.52332 23.9192 8.63671 19.6927 11.0676C11.0244 16.0495 6.57211 25.7336 8.58389 35.234C10.8279 45.9159 20.6323 53.5849 31.9918 53.5443" fill="white"></path><path d="M36.808 49.255C37.7679 49.255 39.3762 49.4405 39.41 50.6682C40.6221 50.1687 41.9149 49.8712 43.2323 49.7885C43.5942 49.7885 44.0065 49.9824 44.3355 49.9824C44.529 49.9824 44.5793 49.9824 44.8067 49.8042L42.7359 62.396C42.3542 62.1693 41.9286 62.0181 41.4844 61.9515C41.0402 61.8849 40.5865 61.9042 40.1503 62.0083C38.7145 62.4149 37.3083 62.9114 35.9409 63.4945C35.0991 63.8019 33.4734 64.3428 32.5735 63.6967C32.0925 63.3413 32.2106 62.889 32.2696 62.3637C30.9149 62.9397 29.505 63.3884 28.0603 63.705C26.5284 63.9265 24.9685 63.9025 23.4454 63.632C21.9771 63.4128 20.5555 62.9683 19.2361 62.3157C18.789 62.0896 18.1068 61.8551 18.04 61.3945C18.0613 60.9542 18.1378 60.5176 18.2674 60.0948L18.6294 57.9864L19.4712 52.9704L20.0015 49.9011C22.2417 51.1778 24.3376 51.9282 26.9987 51.5165C30.3662 50.9996 33.2973 49.2467 36.7402 49.2227" fill="white"></path><path d="M33.3478 58.1809L32.9607 60.8625C32.8765 61.4274 32.3375 63.0595 32.9607 63.4305C33.5829 63.8025 34.6444 63.4305 35.2173 63.2856C36.0592 63.0428 36.8169 62.7041 37.5997 62.3967C38.9467 61.8798 40.9672 60.9668 42.3742 61.7348C42.5842 60.1194 42.8967 58.504 43.1144 56.8886C43.157 56.6302 43.2161 56.5979 43.1144 56.4197C42.8203 56.056 41.9271 56.1289 41.5488 56.1612C40.0779 56.4326 38.639 56.8471 37.2542 57.3972C36.1259 57.7526 34.5854 58.4145 33.3729 58.2049" fill="#FF3A30"></path><path d="M42.9882 57.8305C43.1062 57.1364 43.2156 56.4339 43.3336 55.7305C43.4091 55.2708 43.7962 54.1963 43.4681 53.9055C42.8875 53.372 41.4051 53.7606 40.7654 53.9055C38.7865 54.4391 36.8754 55.3031 34.8714 55.6419C34.5271 55.6349 34.183 55.6593 33.8437 55.7148C33.7682 55.7794 33.776 56.1265 33.7595 56.2151L33.4063 58.3724C33.3221 58.9216 33.1363 59.3499 33.7934 59.6398C34.6352 60.0275 35.839 59.6398 36.6732 59.3259C38.3569 58.6955 41.1438 56.9019 43.0211 57.8065" fill="#0066B3"></path><path d="M32.6309 63.0726C32.8244 61.8126 35.0558 62.2649 35.9403 62.2003C36.4628 62.2003 37.1015 62.0951 37.3299 61.5865C37.4967 60.9613 37.5704 60.3168 37.5485 59.672H34.2391C34.0291 59.672 33.4814 59.5751 33.2879 59.672C33.0944 59.7689 33.0179 60.6985 32.9589 61.0381L32.6309 63.0726Z" fill="#FF3A30"></path><path d="M18.5195 61.3689L19.5298 55.5774C20.8012 56.3453 22.2422 56.8209 23.7391 56.9667C26.5096 57.1772 28.952 56.0787 31.5366 55.3513C32.8302 54.9376 34.1691 54.6666 35.5273 54.5436C36.2521 54.4956 37.3378 54.431 37.9368 54.9396C38.5338 55.4482 38.0452 57.0239 37.9368 57.7181C37.7336 59.0187 37.5236 60.3184 37.3213 61.6191C37.6504 59.592 30.5854 62.5486 29.8103 62.8228C27.9372 63.4208 25.9451 63.6007 23.9876 63.3487C22.0301 63.0966 20.1594 62.4193 18.5195 61.3689Z" fill="#FF3A30"></path><path d="M29.9036 54.7218C27.8814 55.5544 25.6495 55.8097 23.4783 55.4566C22.1739 55.1504 20.9351 54.6311 19.8166 53.9215L19.5466 55.4889C19.3462 56.1377 19.2304 56.8077 19.2021 57.4837C19.2602 58.0975 20.8859 58.5987 21.4249 58.8083C22.7738 59.2744 24.2011 59.5006 25.6342 59.4794C28.2953 59.4304 30.611 58.332 33.1114 57.6129C34.0123 57.3544 37.4475 56.1756 37.9614 57.5483C38.0707 56.8864 38.1723 56.2153 38.273 55.5452C38.4439 55.0225 38.5263 54.4772 38.5168 53.9298C38.3484 53.4128 37.3043 53.3482 36.8331 53.3242C34.4362 53.3376 32.0683 53.8245 29.8784 54.7541" fill="#0066B3"></path><path d="M42.6173 34.3276C42.5495 34.1667 42.4766 34.0078 42.3986 33.8512C42.6057 33.9546 42.776 34.1143 42.8863 34.3109C42.777 34.4402 42.685 34.4402 42.6173 34.3109V34.3276ZM40.4613 34.3119C40.4613 33.746 40.2513 33.2042 40.2175 32.6475C40.4739 33.2198 40.6694 33.8143 40.7981 34.4245C40.6906 34.3747 40.5777 34.3366 40.4613 34.3109V34.3119ZM39.5691 40.1919V40.095C39.5771 40.1099 39.5813 40.1263 39.5813 40.143C39.5813 40.1597 39.5771 40.1761 39.5691 40.191V40.1919ZM42.5834 43.0747C42.4741 43.3009 42.2051 44.1003 41.9854 44.1252C41.8084 44.0898 41.6505 43.9952 41.5403 43.8584C41.2616 43.228 42.2467 43.1393 42.5834 43.0507V43.0747ZM43.106 42.9058C43.0634 43.1883 42.8612 43.204 42.6589 43.035C42.8128 43.0073 42.9628 42.964 43.106 42.9058ZM26.0973 45.5708C26.1265 45.4734 26.185 45.3865 26.2656 45.3206C26.2076 45.5467 26.1814 45.4821 26.0382 45.5948L26.0973 45.5708ZM24.4135 40.1596C24.489 39.9898 24.4135 40.119 24.4135 40.1596V40.1596ZM22.1143 36.1774C21.7158 36.051 21.3831 35.7841 21.1843 35.4312C20.9855 35.0783 20.9357 34.6663 21.0451 34.2795C21.4224 33.4792 21.886 32.7186 22.4259 32.0088C22.1985 32.6318 20.5235 34.9654 21.9208 35.3688C23.3191 35.7731 23.3858 33.3583 23.7478 32.6881C23.6061 33.2041 23.5131 33.7311 23.47 34.2629C23.5533 34.6866 23.9094 35.0116 24.3545 35.0706C25.5254 35.1196 25.3483 33.4552 25.3647 32.7685C25.9715 33.1885 26.3585 31.9608 26.7195 32.9466C26.879 33.3191 26.9304 33.7257 26.8682 34.1236C26.8061 34.5216 26.6327 34.8962 26.3663 35.2082C26.5598 35.2174 26.7533 35.1833 26.9304 35.1113C26.7668 35.381 26.5034 35.5828 26.1919 35.6769C25.8804 35.771 25.5433 35.7506 25.2467 35.6199C25.2612 35.7306 25.2989 35.8377 25.356 35.9346C24.9386 35.969 24.5477 36.1439 24.253 36.428C23.9584 36.7121 23.7793 37.0869 23.7478 37.4854C23.4536 37.0977 22.6872 37.3885 22.6872 37.8491C22.456 37.7268 22.21 37.632 21.9547 37.5667C22.1908 37.6719 22.4346 37.7679 22.6707 37.8814C22.2837 37.7116 21.8792 37.599 21.4834 37.4531L22.1143 36.1774ZM44.4114 33.2771V33.4155C44.3848 33.3959 44.3634 33.3707 44.3486 33.3419C44.3338 33.3131 44.3261 33.2814 44.3261 33.2494C44.3261 33.2173 44.3338 33.1857 44.3486 33.1569C44.3634 33.1281 44.3848 33.1029 44.4114 33.0832C44.4955 33.1478 44.4878 33.2125 44.4114 33.2771ZM42.1809 33.2771C42.3618 33.3002 42.506 33.4349 42.5341 33.6094C42.2815 33.6094 42.2728 33.4709 42.1809 33.2771ZM37.6086 35.6033C37.3665 35.4962 37.1724 35.3103 37.0609 35.0789C37.239 35.1509 37.4316 35.1842 37.6251 35.1759C37.3585 34.8705 37.1839 34.5018 37.1202 34.1091C37.0564 33.7164 37.1059 33.3146 37.2632 32.9466C37.6677 31.8721 37.9957 33.1728 38.6276 32.7361C38.6276 33.2448 38.8966 33.9565 38.6276 34.4328C38.3576 34.9091 37.7857 35.1186 37.5825 35.6033H37.6086ZM39.8652 44.2138L38.7534 43.7209L39.5701 42.1461C39.7888 42.3159 40.5136 42.5098 40.5978 42.7683C40.682 43.0267 40.0172 43.9553 39.8904 44.2138H39.8633H39.8652ZM24.4145 39.9492C24.4145 40.0867 24.4145 40.0295 24.4145 39.9492V39.9492ZM43.7804 32.6069C43.8443 32.5965 43.91 32.6049 43.9688 32.6309C44.0275 32.657 44.0766 32.6995 44.1094 32.7528C44.0468 32.7524 43.9851 32.7392 43.9283 32.714C43.8715 32.6888 43.8211 32.6523 43.7804 32.6069ZM41.7928 32.6069C41.9346 32.7022 42.0452 32.8337 42.1122 32.9863C41.8944 32.9863 41.8693 32.7528 41.7928 32.6078V32.6069ZM38.7282 40.3692V40.5953V40.3692ZM38.7282 40.0544V40.1596V40.0544ZM35.6385 44.9569L36.1765 45.1997C35.8397 45.7969 35.1333 45.0298 35.6385 44.9569ZM30.5863 43.9397L31.0575 43.7135C30.9482 44.1981 31.0575 44.9726 30.384 44.9006C30.4181 44.5747 30.4859 44.2528 30.5863 43.9397ZM27.781 45.2154C27.8671 45.1646 27.9571 45.1212 28.051 45.0861C28.051 45.304 27.9668 45.4581 27.781 45.2154ZM30.9308 42.8412C31.3856 42.9381 30.9308 43.1643 30.7624 43.2612C30.8127 43.1227 30.8717 42.9778 30.9308 42.8403V42.8412ZM35.8978 38.2774C35.5132 38.224 35.1212 38.2466 34.7462 38.3438C34.3711 38.441 34.0211 38.6107 33.7176 38.8424C34.1047 38.1159 35.2166 37.5344 35.8978 38.2774ZM34.5934 41.379C34.5092 41.379 33.7515 40.959 33.8018 40.8861C34.1821 40.8685 34.5518 41.0061 34.8208 41.2655L34.5934 41.379ZM30.7198 41.379C30.594 41.379 30.8969 41.1039 30.8882 41.1205L30.7198 41.379ZM31.5036 41.379C31.3178 41.379 31.5036 41.1279 31.5036 41.1122V41.379ZM33.8521 42.2836C34.2731 41.9116 34.8537 42.663 35.0811 42.9298C34.6192 42.8209 34.1954 42.598 33.8521 42.2836ZM32.3445 41.1769C32.3445 41.3301 32.4287 41.4842 32.48 41.6375C32.3445 41.5729 32.3619 41.2895 32.3445 41.1769ZM34.9553 39.4728C34.9553 40.2805 36.1426 40.5067 36.7068 40.0295C36.7039 40.141 36.7426 40.25 36.8161 40.3368L34.9292 41.2655C34.9292 40.4578 33.3045 40.0055 34.9292 39.4728H34.9553ZM34.9301 39.4728C35.2446 39.3962 35.5746 39.3962 35.8901 39.4728C35.7458 39.5578 35.5796 39.6028 35.4101 39.6028C35.2406 39.6028 35.0744 39.5578 34.9301 39.4728ZM37.1267 40.0221C37.1267 40.1024 37.2196 40.1264 37.2961 40.0784C37.2114 40.144 37.1141 40.1932 37.0097 40.2233L37.1277 40.0221H37.1267ZM36.8916 42.7756C36.3613 42.3796 35.7981 42.0261 35.2079 41.7178L37.599 40.563C37.6541 40.957 37.6219 41.3576 37.5044 41.7389C37.3868 42.1202 37.1866 42.4738 36.9168 42.7766H36.8916V42.7756ZM29.6844 41.0882L29.516 41.007C29.7134 40.9682 29.9128 40.9415 30.114 40.9267C30.0616 40.9849 29.995 41.03 29.9202 41.0581C29.8453 41.0863 29.7644 41.0966 29.6844 41.0882ZM28.7583 40.6682L27.9165 40.2962C28.1586 40.3073 28.396 40.2299 28.5805 40.0798C28.7649 39.9298 28.8825 39.7184 28.9093 39.4885C28.3703 39.723 27.6465 39.4885 27.7055 38.8747C27.7539 38.5701 27.9426 38.3005 28.2203 38.1436C28.3573 38.0663 28.5108 38.0192 28.6694 38.006C28.828 37.9927 28.9877 38.0136 29.1367 38.067C29.7579 38.2294 30.2186 38.7316 30.3076 39.3436C30.3076 39.9168 29.4657 40.8861 28.7912 40.611L28.7583 40.6682ZM30.8127 46.3701C30.622 46.2358 30.4875 46.0411 30.4334 45.8209C30.9046 45.8209 30.7527 45.9261 30.8127 46.3701ZM33.0354 44.4077C33.1419 44.2387 33.2386 44.0634 33.3219 43.8824C33.6751 44.4889 33.8773 45.9261 33.1361 46.3545C33.1954 45.7042 33.1615 45.0492 33.0354 44.4077ZM40.6723 38.067C40.6723 38.5193 40.5542 38.4464 40.1168 38.6568C40.0327 38.3901 40.5968 38.3097 40.6723 38.067ZM42.7431 31.226C43.0053 31.4558 43.2424 31.7097 43.4505 31.9848C43.1197 31.8301 42.866 31.5575 42.7441 31.226H42.7431ZM41.5393 31.9931L41.6409 32.1546C41.548 32.1546 41.5151 32.09 41.5393 31.9931ZM19.7571 33.0998H19.521C20.0141 32.4271 20.5783 31.8044 21.2047 31.2417C20.7838 31.9035 20.299 32.5248 19.7571 33.0998ZM18.4014 38.1316C18.0395 38.1316 17.9466 38.8027 17.5595 38.6005C17.1724 38.3984 17.5595 38.019 17.484 37.7928C17.4076 37.5667 17.2392 37.5177 17.1637 37.3802C17.0149 37.1046 16.9591 36.7918 17.0041 36.4848C17.0718 35.9743 17.4134 35.5349 17.904 35.3291C18.1324 35.2239 18.3849 35.2082 18.6036 35.1196C18.8223 35.03 18.9568 34.8279 19.1165 34.7965C19.6816 34.6996 19.4619 35.3854 19.5132 35.6033C19.5636 35.822 19.8074 36.0556 19.85 36.3233C19.8955 36.6131 19.8548 36.9094 19.7319 37.179C19.49 37.6848 18.9936 38.0356 18.4178 38.1076L18.4014 38.1316ZM31.2588 16.9458C31.9437 16.8866 32.6306 17.0366 33.2203 17.3741C33.9198 17.8308 34.7066 18.1519 35.5359 18.3194C35.0134 18.3194 33.9363 18.5455 33.5406 18.1089C33.5406 18.6988 34.5847 18.9969 35.0734 19.1021C34.624 19.1578 34.1673 19.0966 33.7515 18.9249C33.9518 19.2203 34.247 19.4437 34.5934 19.5628C34.3266 19.8323 33.9968 20.038 33.6309 20.1629C33.265 20.2879 32.8733 20.3286 32.4877 20.2819C32.7161 20.5348 33.0587 20.6649 33.4061 20.6289C32.6283 21.7409 32.143 23.0154 31.9913 24.3444C31.8237 23.0102 31.3244 21.7335 30.535 20.6206C30.8843 20.6622 31.2327 20.532 31.461 20.2735C31.0768 20.3209 30.6862 20.2805 30.3216 20.1554C29.957 20.0304 29.6288 19.8244 29.3641 19.5545C29.7096 19.4354 30.0057 19.212 30.206 18.9166C29.7899 19.0883 29.3331 19.1501 28.8841 19.0938C29.3728 18.9895 30.3743 18.6905 30.4169 18.1006C30.0299 18.5372 28.9267 18.3111 28.4129 18.3111C29.4773 18.1264 30.4653 17.652 31.2578 16.9458H31.2588ZM21.5744 37.526C21.3983 37.4291 21.5328 37.526 21.5744 37.526V37.526ZM39.5179 39.8116C39.4501 39.8116 39.4501 39.7636 39.5179 39.699V39.8116ZM39.5179 39.8845C39.5759 39.9575 39.5856 40.0055 39.5179 40.0378V39.8845ZM49.9174 26.0004C49.3224 25.7129 48.6486 25.6084 47.9888 25.7013C48.5868 25.5158 50.0103 24.7884 49.9435 24.0213C49.8758 23.2542 48.6797 23.6899 48.192 23.7951C48.7552 23.3991 49.6561 22.6966 49.5806 21.9296C49.5052 21.1616 48.0566 21.8003 47.593 21.9776C48.7552 21.3637 49.5642 19.7243 48.7214 18.5852C47.6695 19.1668 47.0376 20.2006 46.0699 20.9114C47.0212 19.8618 49.3697 16.704 47.1053 15.6535C46.2917 17.4297 45.2296 19.0925 43.9478 20.5966C43.8714 20.4954 43.7663 20.417 43.645 20.3705C43.3591 21.189 42.8183 21.9049 42.0948 22.4225C42.0448 22.2907 41.9772 22.1657 41.8935 22.0505C41.2105 22.8821 40.4465 23.6502 39.6117 24.3444C39.0389 24.9019 38.407 25.6367 38.946 26.4204C39.1395 26.7028 39.5188 26.8801 39.603 27.2281C39.6601 27.6416 39.4501 28.0469 39.0727 28.2536C38.9199 28.3628 38.7459 28.4419 38.5608 28.4863C38.3757 28.5308 38.1832 28.5398 37.9944 28.5128C37.8057 28.4857 37.6244 28.4232 37.4612 28.3288C37.2979 28.2344 37.156 28.11 37.0435 27.9629C37.4403 27.889 37.7644 27.6149 37.8922 27.2465C38.0199 26.8782 37.9299 26.473 37.658 26.1859C37.2196 26.929 36.1591 26.6622 35.6627 26.1296C35.9626 26.2459 36.3033 26.2053 36.5626 26.0198C36.6906 25.9287 36.792 25.8078 36.8571 25.6686C36.9221 25.5295 36.9487 25.3767 36.9342 25.225C36.252 25.7899 35.5117 25.1604 35.3008 24.4893C35.2299 24.1133 35.2419 23.7275 35.336 23.3562C35.4302 22.9849 35.6044 22.6364 35.8475 22.333C36.041 22.0505 36.3187 21.7034 36.5974 21.6471C36.5974 21.6471 36.8829 21.7274 36.9671 21.7357C37.1606 21.7126 37.3493 21.6693 37.5312 21.6065C38.256 21.4689 39.0389 21.744 39.0137 22.5757C39.8556 22.1068 39.1908 21.3803 38.5086 21.2022C39.3504 21.2022 39.8391 22.1797 40.7052 22.0099C41.1358 21.9369 42.2805 21.2991 41.7328 20.7988C41.4213 22.0339 39.2072 20.7259 38.4157 20.7988C39.0389 20.4591 40.0994 20.3788 40.5716 21.0323C40.8159 20.8293 40.9738 20.5481 41.0156 20.2416C41.0573 19.9351 40.9799 19.6247 40.7981 19.3689C40.5465 19.0375 40.2426 19.0458 39.872 18.9083C39.7403 18.8481 39.6138 18.778 39.4937 18.6988C39.2576 18.5852 39.2324 18.4726 39.0553 18.3268C39.4792 18.3549 39.9043 18.2919 40.2992 18.1424C40.6942 17.9928 41.0488 17.7606 41.3371 17.4627C41.9099 16.655 40.7816 15.791 41.2364 14.9667C41.6158 15.1449 42.3222 15.2815 42.5912 15.6129C42.8621 15.9443 42.5912 16.5498 42.4073 16.9301C42.2812 17.1477 42.215 17.3923 42.215 17.6409C42.215 17.8895 42.2812 18.1341 42.4073 18.3517C42.6337 18.804 42.954 19.224 42.4654 19.6597C42.5844 19.6696 42.7043 19.6563 42.8177 19.6206C42.9312 19.5849 43.0358 19.5275 43.1253 19.452C43.2151 19.3764 43.2879 19.2843 43.3394 19.1812C43.391 19.0781 43.4202 18.9661 43.4253 18.852C43.4253 18.4403 43.0044 18.1735 43.0218 17.7692C43.3334 18.1735 43.6275 18.1172 44.0988 18.1255C44.571 18.1329 44.7142 18.1255 44.4617 18.6175C44.84 18.4163 45.1855 17.7378 44.7558 17.4304C44.3262 17.124 43.3498 17.7295 43.9643 16.8406C44.3514 16.2913 44.8062 15.7744 43.9643 15.2824C43.375 14.9187 42.895 14.9344 42.4063 14.3852C41.9186 13.8359 41.6235 13.6421 40.95 13.9975C40.2765 14.3529 39.7375 14.6039 39.8643 15.3304C39.9901 16.0578 40.7062 16.5821 40.4536 17.2606C40.201 17.9391 39.4346 18.0683 38.8705 18.1735C38.7447 17.4867 39.7124 16.9135 39.2159 16.235C39.0979 16.0735 37.9522 15.4273 37.9609 15.8713C37.7586 15.7827 37.9609 15.6452 37.9609 15.5086C37.9609 15.3701 37.8428 15.1763 38.0286 15.1763C37.9438 15.095 37.8677 15.0059 37.8012 14.9104C37.898 14.975 37.9889 15.047 38.0702 15.1283V14.3206C37.9928 14.4036 37.9018 14.4747 37.8012 14.531C37.868 14.4378 37.9435 14.351 38.0286 14.2726H37.1867C37.269 14.3529 37.3454 14.4387 37.4141 14.531C37.3121 14.4726 37.2185 14.4019 37.1355 14.3206V15.1283C37.2187 15.047 37.3125 14.9769 37.4141 14.9187C37.3425 15.0083 37.2671 15.0941 37.1867 15.1772C37.2545 15.1772 37.4054 15.791 37.1867 15.8713C37.1277 15.444 36.1 16.0329 35.9655 16.1944C35.4527 16.8166 36.1929 17.4794 36.2849 18.1006C35.5009 17.8896 34.7763 17.5143 34.1637 17.0021C33.4564 16.356 33.7515 15.791 34.1637 15.0636C34.3693 14.7933 34.4944 14.4748 34.5255 14.1422C34.5567 13.8095 34.4929 13.475 34.3408 13.1741C34.1047 12.8427 32.6571 12.059 32.5806 12.6572C32.3194 12.6572 32.4374 12.3821 32.2352 12.3987C32.3238 12.3492 32.3956 12.2763 32.4419 12.1889C32.4882 12.1015 32.5072 12.0032 32.4964 11.9058C32.4964 11.6639 32.1597 11.5421 32.4964 11.5421C32.3541 11.425 32.2415 11.2785 32.1674 11.1138C32.3416 11.1784 32.4964 11.2836 32.6145 11.4211V10.4842C32.4935 10.6162 32.3436 10.7205 32.1761 10.7907C32.1761 10.6217 32.3871 10.4768 32.4964 10.3633H31.4272C31.5365 10.4842 31.7136 10.6301 31.7465 10.7907C31.5755 10.7223 31.4232 10.6175 31.3014 10.4842V11.5014C31.4272 11.3971 31.5704 11.2273 31.7465 11.195C31.6788 11.3611 31.5694 11.5088 31.4272 11.6233C31.7639 11.6233 31.4272 11.7525 31.4272 11.9861C31.4193 12.084 31.4404 12.1821 31.4879 12.2692C31.5354 12.3563 31.6076 12.429 31.6962 12.479C31.461 12.479 31.6459 12.6165 31.5617 12.6655C31.5303 12.6949 31.4881 12.7115 31.4441 12.7115C31.4001 12.7115 31.3579 12.6949 31.3265 12.6655C31.1495 12.6655 30.9811 12.5519 30.7111 12.6248C29.9873 12.8187 29.3302 13.1981 29.3467 13.9892C29.3641 14.7812 30.324 15.6046 30.1886 16.4123C30.055 17.22 28.3877 17.9391 27.6213 18.1735C27.6891 17.6483 28.1855 17.0917 28.0674 16.5581C28.0242 16.4203 27.9465 16.2945 27.841 16.1918C27.7354 16.089 27.6052 16.0123 27.4617 15.9683C27.3523 15.9286 26.5521 15.8556 26.7117 15.9683C26.5346 15.8473 26.7117 15.7504 26.7117 15.6055C26.7117 15.4596 26.5859 15.2732 26.7708 15.2732C26.686 15.1945 26.6099 15.1079 26.5433 15.0147C26.645 15.0738 26.7388 15.1439 26.8211 15.2252V14.4175C26.7384 14.4987 26.645 14.5695 26.5433 14.6279C26.6101 14.5347 26.6866 14.4479 26.7708 14.3695H25.9289C26.0131 14.4479 26.0895 14.5347 26.1563 14.6279C26.0546 14.5695 25.9613 14.4987 25.8786 14.4175V15.2252C25.9715 15.1449 26.0556 15.0803 26.1563 15.0073C26.0895 15.1033 26.014 15.1919 25.9289 15.2741C26.1563 15.2741 25.9289 15.371 25.9792 15.54C26.0276 15.6729 26.0566 15.8123 26.0634 15.9526C25.8699 15.9526 25.7344 15.7993 25.4325 15.888C25.1545 15.969 24.9043 16.1195 24.7077 16.3237C24.1948 16.9938 25.146 17.592 25.0531 18.2704C24.5141 18.1818 23.7478 17.9714 23.5039 17.4627C23.26 16.9541 23.8232 16.2267 24.0003 15.6535C24.1774 15.0803 23.8068 14.555 23.2088 14.2402C22.6117 13.9246 22.123 13.8359 21.6092 14.3935C21.4377 14.6483 21.2146 14.868 20.9531 15.0396C20.6744 15.1855 20.3377 15.2012 20.0513 15.3461C19.1591 15.815 19.5887 16.356 19.9932 16.9615C20.5651 17.8338 19.6816 17.2938 19.2607 17.5117C18.8397 17.7295 19.1087 18.5289 19.4958 18.7394C19.252 18.3028 19.4958 18.2704 19.85 18.2464C20.2032 18.2224 20.6077 18.3194 20.9357 17.8911C20.9357 18.2944 20.5235 18.5612 20.5312 18.9729C20.5375 19.0868 20.5675 19.1984 20.6196 19.3011C20.6716 19.4038 20.7445 19.4956 20.8341 19.5711C20.9235 19.6462 21.0278 19.7035 21.1408 19.7395C21.2539 19.7755 21.3733 19.7895 21.4921 19.7806C20.9444 19.2803 21.407 18.8114 21.6266 18.3111C21.7184 18.0742 21.7509 17.8202 21.7217 17.5693C21.6925 17.3183 21.6023 17.0774 21.4582 16.8655C21.315 16.5498 21.1041 16.0006 21.3818 15.6775C21.6595 15.3544 22.3843 15.2501 22.7298 15.0876C23.1846 15.8963 22.0718 16.7437 22.6282 17.5837C22.9163 17.8817 23.2709 18.1141 23.6659 18.2638C24.0608 18.4135 24.486 18.4767 24.9099 18.4486C24.9099 18.7625 24.7744 18.5529 24.6322 18.6738C24.489 18.7957 24.43 18.9489 24.43 18.9489C24.0845 19.1261 23.6384 19.0375 23.3017 19.32C23.1789 19.4445 23.0839 19.5913 23.0223 19.7518C22.9607 19.9123 22.9338 20.083 22.9433 20.2536C22.9528 20.4243 22.9985 20.5913 23.0775 20.7447C23.1566 20.898 23.2674 21.0345 23.4033 21.1459C23.8406 20.4914 24.9351 20.5726 25.5583 20.9114C24.7841 20.8634 22.5604 22.1714 22.2411 20.9114C21.7021 21.4126 22.8391 22.0588 23.26 22.1234C24.1019 22.2526 24.607 21.3157 25.4663 21.3157C24.7841 21.4929 24.1019 22.2203 24.9602 22.6883C24.9602 21.8806 25.7179 21.5825 26.4427 21.7191C26.7214 21.7625 27.002 21.7929 27.2846 21.8077C27.512 21.8077 27.4617 21.7357 27.722 21.9942C27.8594 22.1336 27.9832 22.285 28.0926 22.4465C28.5474 23.0327 28.7371 23.7684 28.6229 24.4893C28.4129 25.1678 27.6717 25.7908 26.9894 25.225C26.9748 25.3766 27.0013 25.5293 27.0661 25.6685C27.131 25.8076 27.2322 25.9286 27.3601 26.0198C27.6204 26.2044 27.962 26.2459 28.261 26.1296C27.7645 26.6539 26.6953 26.9373 26.2656 26.1859C25.9937 26.473 25.9037 26.8782 26.0315 27.2475C26.1592 27.6149 26.4834 27.889 26.8801 27.9629C26.7677 28.1109 26.6257 28.2362 26.4624 28.3318C26.2991 28.4273 26.1176 28.4911 25.9283 28.5196C25.7391 28.5481 25.5458 28.5406 25.3596 28.4977C25.1734 28.4547 24.9979 28.3771 24.8432 28.2693C24.6697 28.1778 24.5256 28.0431 24.4263 27.8795C24.3269 27.716 24.276 27.5297 24.279 27.3407C24.279 26.9207 24.7164 26.7435 24.9438 26.4204C25.4828 25.6127 24.8509 24.9019 24.279 24.3444C23.4439 23.6502 22.6796 22.8821 21.9963 22.0505C21.9131 22.165 21.8453 22.2905 21.795 22.4216C21.0813 21.9006 20.5499 21.1854 20.2709 20.3705C20.1492 20.4168 20.0438 20.4953 19.9671 20.5966C18.6945 19.0911 17.6412 17.4283 16.8357 15.6535C14.5617 16.6957 16.9199 19.8618 17.8624 20.9114C16.8357 20.2495 16.2541 19.1668 15.1936 18.5612C14.3517 19.7003 15.1936 21.3397 16.3219 21.9536C15.8245 21.792 14.3933 21.1052 14.3091 21.9296C14.2249 22.753 15.151 23.4074 15.7316 23.7951C15.2603 23.6899 13.8795 23.3751 14.0062 24.1182C14.132 24.8613 15.2526 25.4835 15.9261 25.7336C15.4626 25.7336 14.0314 25.5961 14.0817 26.2745C14.132 26.953 15.4713 27.5262 16.1196 27.6158C15.5971 27.6721 14.0565 28.0432 14.6546 28.7706C15.0978 29.1527 15.6861 29.3429 16.2803 29.2958C15.8158 29.449 14.8646 30.1035 15.3784 30.5475C15.8922 30.9915 17.1637 30.7174 17.7782 30.4986C17.2982 30.6924 15.3106 31.8961 16.4902 32.4371C17.6689 32.9789 18.6375 31.7263 19.4126 31.2343C18.9065 31.7429 18.1575 32.042 17.7782 32.6641C17.576 32.9872 17.3157 33.698 17.9214 33.794C17.8034 33.9325 17.2644 33.8752 17.0795 33.9159C16.9081 33.9508 16.7478 34.0238 16.6116 34.1291C16.4754 34.2343 16.3672 34.3687 16.2957 34.5214C16.0857 34.9091 16.2038 34.7882 15.8167 34.9737C15.4297 35.1593 15.21 35.3697 15.2865 35.7814C15.3619 36.1931 15.5303 36.0962 15.4374 36.4276C15.3445 36.759 15.1007 36.9611 15.2352 37.4051C15.3368 37.7199 15.6397 37.9054 15.749 38.2128C15.8583 38.5193 15.6648 38.8747 16.1535 38.9393C15.749 39.5375 16.4399 40.0618 17.037 40.0618C17.5847 40.0618 17.6098 39.8356 18.0646 39.6907C18.2669 39.6261 18.5194 39.6418 18.7294 39.5771C18.8717 39.5098 19.0217 39.4581 19.1765 39.4239C19.5132 39.3759 20.0687 39.6907 20.3628 39.5615C20.658 39.4322 20.8941 38.6734 21.0373 38.3901C21.3499 38.6393 21.7098 38.8285 22.0979 38.9476C22.3756 39.0611 22.9397 39.1331 23.1081 39.3759C23.2765 39.6178 23.0578 39.8688 23.2088 40.0701C23.3607 40.2722 23.9248 40.0701 23.8406 39.747C23.891 39.9575 23.681 40.1753 23.8406 40.3692C23.8688 40.4109 23.9074 40.4452 23.9531 40.469C23.9987 40.4928 24.0499 40.5052 24.1019 40.5052C24.1539 40.5052 24.2051 40.4928 24.2508 40.469C24.2964 40.4452 24.3351 40.4109 24.3632 40.3692C24.3632 40.8621 25.0019 40.7162 25.0531 40.3692L28.4719 41.8959C27.8739 42.1867 27.4104 42.8329 26.7882 43.0018C26.2656 43.1403 25.6008 42.5255 26.2318 42.195C25.8282 42.0981 25.3899 42.4775 25.2544 42.8079C25.1712 42.9861 25.2544 43.2123 25.1799 43.3572C25.1035 43.503 24.8935 43.6323 24.6748 43.8095C24.0264 44.3357 23.4362 45.4249 24.0681 46.1283C24.1108 45.8669 24.2071 45.616 24.3516 45.3902C24.496 45.1643 24.6858 44.9678 24.9099 44.812C24.8867 45.2827 25.056 45.7424 25.3812 46.0951C25.0783 46.2492 23.3191 46.7985 23.4458 47.2268C23.5716 47.6542 25.1964 46.6452 25.4325 46.5317C25.3483 46.8391 26.1979 46.168 26.3324 46.096C26.5772 46.5677 27.0891 46.8566 27.6387 46.8308C27.3067 47.2207 26.8431 47.4886 26.3271 47.5887C25.8111 47.6889 25.2746 47.6151 24.8093 47.38C25.0444 48.244 26.164 48.4702 26.9643 48.3252C27.3741 48.2452 27.7553 48.0656 28.071 47.8038C28.3867 47.542 28.6261 47.2068 28.7661 46.8308C29.0192 47.1578 29.3933 47.3807 29.8123 47.4542C30.2314 47.5277 30.6641 47.4464 31.0227 47.2268C31.1659 47.5332 31.5114 48.2034 31.8646 48.244C32.2187 48.2846 32.7064 47.5655 32.8584 47.2268C33.287 47.4797 33.8105 47.5351 34.2866 47.3791C34.7618 47.2222 35.1401 46.8705 35.3172 46.4191C35.8059 46.5963 36.101 46.9194 36.6719 46.7745C37.1471 46.6443 37.5138 46.2806 37.6328 45.8209C38.0286 45.9261 38.1128 46.4025 38.5328 46.4837C38.486 46.3964 38.4631 46.2992 38.466 46.2012C38.9963 46.4348 41.2113 47.8166 41.7164 47.0966C42.3057 46.2169 40.1333 46.144 40.8745 45.5624C41.2703 45.2394 41.548 45.8209 41.9438 45.8698C42.3396 45.9178 42.3483 45.7323 42.5167 45.3769C42.7779 44.8517 42.9966 44.3024 43.2656 43.7615C43.5346 43.2206 43.6866 43.0747 43.1476 42.8329C43.5539 42.6367 43.8932 42.3343 44.1259 41.9609C44.3586 41.5876 44.4751 41.1587 44.4617 40.7245C44.449 40.3118 44.2885 39.9156 44.0069 39.6021C43.5772 39.1581 43.165 39.4405 42.6337 39.1978C42.7915 39.5458 43.0208 39.8587 43.3072 40.119C43.0295 40.2316 42.6686 39.9335 42.4654 39.7876C42.4654 40.2639 43.1311 40.4504 43.3072 40.8621C43.5269 41.4759 42.8863 41.8876 42.3396 41.9606C41.3545 42.0981 39.5275 41.2498 39.5275 40.2159C39.5275 40.4818 39.9485 40.3525 40.0404 40.2159C40.1333 40.0784 39.9485 39.5615 40.0404 39.5208C39.9823 39.771 40.1836 40.167 40.5039 40.0618C40.8232 39.9575 40.6558 39.6667 40.6723 39.4562C40.7303 38.7371 41.5142 38.6485 42.0696 38.3337L46.4318 36.3306C46.2811 36.1588 46.1717 35.9574 46.1115 35.7408C45.6316 35.9836 45.1013 36.1285 44.6126 36.3547C44.722 36.5485 43.1902 37.1624 42.9289 37.3156C42.5563 37.5574 42.1683 37.7753 41.7677 37.971C41.2703 38.1556 41.4135 38.0753 41.1687 37.7356C40.9248 37.3968 40.53 37.203 40.201 37.5177C40.1773 37.1386 40.0181 36.7787 39.7499 36.4981C39.4817 36.2174 39.1208 36.0329 38.7273 35.9753C39.0224 35.5063 39.7462 34.9894 40.3104 35.3854C40.8745 35.7814 40.411 36.5734 40.9161 36.831C40.9161 36.5974 40.8581 36.1202 41.1097 36.0233C41.1793 36.398 41.3129 36.758 41.5064 37.0894C41.6409 36.3879 42.2302 36.1451 41.817 35.3854C42.2467 35.474 42.7354 34.9414 42.6589 34.5297C43.1524 34.8002 43.7088 34.9451 44.2759 34.9497C44.1501 34.7965 44.2256 34.9497 44.2759 34.8288C44.5952 35.2239 44.1327 34.8288 44.2759 35.2073C44.3262 35.3697 44.4868 35.4657 44.5197 35.5876C44.5536 35.7085 44.5197 35.8783 44.5197 35.9513L44.6804 36.0076C44.6479 36.0542 44.6305 36.109 44.6305 36.165C44.6305 36.221 44.6479 36.2757 44.6804 36.3223C44.9668 36.1691 45.261 36.0482 45.5222 35.9023C45.3778 35.8677 45.2454 35.7974 45.1384 35.6986C45.0314 35.5998 44.9534 35.4759 44.9125 35.3392C44.8715 35.2026 44.8689 35.0581 44.9049 34.9203C44.941 34.7824 45.0144 34.656 45.1178 34.5537C45.2697 34.3922 45.4971 34.3035 45.648 34.1337C45.8 33.9639 45.7496 33.8835 45.8754 33.8023C46.2122 33.5845 46.1454 33.9639 46.3138 33.4958C46.7009 32.3974 45.1526 31.8804 44.5197 31.2417C45.2358 31.694 46.4744 33.0269 47.5002 32.4297C48.5278 31.8315 46.6583 30.709 46.1541 30.5069C46.7434 30.709 48.1156 31.1051 48.6207 30.5069C49.1258 29.9097 48.0653 29.4407 47.653 29.3032C48.132 29.3032 49.5381 29.0936 49.4461 28.4152C49.3697 27.8742 48.2501 27.6721 47.8127 27.6075C48.6546 27.4865 49.7906 26.9696 49.9261 25.9921L49.9174 26.0004Z" fill="#94A3B8"></path><path d="M47.2321 34.1417C46.787 34.3596 46.7773 34.7149 46.4996 35.014C46.2219 35.3131 46.1551 35.1109 46.1212 35.4737C46.1793 35.8134 46.3399 36.1282 46.5838 36.3783C46.6428 36.4356 46.7192 36.5565 46.8199 36.5648C47.0889 36.5648 47.0134 36.3867 47.1489 36.3627C47.4682 36.3063 47.7876 36.5159 48.1417 36.4273C48.3697 36.3632 48.5747 36.2403 48.7342 36.0721C48.8936 35.9039 49.0013 35.697 49.0453 35.4742C49.0893 35.2514 49.068 35.0213 48.9837 34.8093C48.8994 34.5973 48.7554 34.4117 48.5675 34.2728C48.3797 34.1346 48.1553 34.0491 47.9194 34.0259C47.6834 34.0028 47.4454 34.0429 47.2321 34.1417ZM44.572 36.3303C44.5338 36.2907 44.5086 36.2413 44.4995 36.1881C44.4904 36.135 44.4977 36.0805 44.5207 36.0313C44.302 35.975 43.6788 36.2168 43.6788 36.4679C43.9846 36.5233 44.3001 36.4743 44.572 36.3303ZM44.3698 35.9343C44.3396 35.9101 44.3154 35.8798 44.2988 35.8457C44.2821 35.8116 44.2735 35.7744 44.2735 35.7368C44.2735 35.6992 44.2821 35.662 44.2988 35.6279C44.3154 35.5938 44.3396 35.5635 44.3698 35.5393C44.1669 35.5029 43.9581 35.5116 43.7593 35.5648C43.5606 35.6179 43.3775 35.714 43.224 35.8457C43.5027 36.1125 44.0659 36.023 44.3698 35.9343ZM44.2604 35.4737C44.2199 35.4418 44.1872 35.4018 44.1648 35.3565C44.1424 35.3112 44.1308 35.2617 44.1308 35.2116C44.1308 35.1614 44.1424 35.112 44.1648 35.0666C44.1872 35.0213 44.2199 34.9813 44.2604 34.9494C43.7507 34.8611 43.2257 34.8999 42.7363 35.062C43.1805 35.3869 43.7388 35.5346 44.2943 35.4746L44.2604 35.4737ZM47.4256 37.5987C46.9883 37.5987 46.7773 37.9864 46.3061 37.7519C46.1308 37.6373 46.0009 37.4701 45.9369 37.2769C45.8728 37.0836 45.8785 36.8755 45.9529 36.6857C45.6577 36.8233 45.3723 36.9848 45.111 37.114C45.111 37.235 45.2532 37.2913 45.3626 37.3236C45.2368 37.5257 45.3626 37.7436 45.6238 37.6956C45.6238 37.9781 45.7922 38.2688 46.1038 38.1156C46.1038 38.519 46.3486 38.4461 46.5838 38.5596C46.8199 38.6731 46.8702 39.0036 47.1644 38.6482C47.1813 38.7368 47.218 38.8208 47.2719 38.8947C47.3259 38.9686 47.3958 39.0306 47.4769 39.0765C47.7043 39.1568 47.8466 38.9473 48.0237 38.963C48.0237 38.963 47.1818 41.1599 47.8892 40.9993C48.0575 40.3282 49.2362 37.3642 47.4595 37.5987" fill="#94A3B8"></path><path d="M45.2364 37.365C44.9171 37.0096 44.5629 37.365 44.3945 37.761C44.5587 37.7694 44.7224 37.7374 44.8698 37.6681C45.0172 37.5987 45.1435 37.4943 45.2364 37.365ZM45.5228 37.8413C45.4638 37.736 45.2199 37.761 45.2035 37.5265C44.9326 37.7286 44.5455 38.0914 44.6132 38.4634C44.9935 38.3859 45.3225 38.1607 45.5228 37.8413ZM45.666 38.156C45.6246 38.122 45.5911 38.0799 45.5677 38.0327C45.5444 37.9855 45.5317 37.9341 45.5306 37.8819C45.2364 38.3342 44.858 38.7459 44.9674 39.3191C45.3943 39.04 45.7367 38.6586 45.9602 38.2133C45.9104 38.2307 45.8566 38.2346 45.8046 38.2245C45.7526 38.2144 45.7047 38.1907 45.666 38.156Z" fill="#94A3B8"></path><path d="M46.407 38.651C46.2983 38.6317 46.2002 38.5767 46.1295 38.4956C46.0588 38.4146 46.02 38.3125 46.0199 38.207C45.6517 38.6743 45.443 39.2382 45.4219 39.8224C45.867 39.6526 46.1709 39.0147 46.407 38.627V38.651ZM46.5579 39.419L46.9034 38.8689C46.4147 38.8689 46.676 38.3363 46.2715 38.9584C45.9629 39.4467 45.7947 40.0038 45.7838 40.5738C46.1099 40.2415 46.3721 39.8557 46.5579 39.4347" fill="#94A3B8"></path><path d="M47.299 39.0613C47.2261 38.9702 47.1743 38.8655 47.147 38.7539C46.6506 39.0927 45.7826 40.9029 46.1116 41.4198C46.7097 40.9509 47.0038 39.7472 47.299 39.0613Z" fill="#94A3B8"></path><path d="M47.4251 40.4209L47.9892 39.0391C47.7879 39.1766 47.4928 39.0391 47.3834 39.1443C47.2741 39.2495 47.0641 39.8957 46.9867 40.0895C46.6368 40.6947 46.4985 41.3906 46.5919 42.076C47.0215 41.8582 47.2567 40.8409 47.4251 40.4209Z" fill="#94A3B8"></path><path d="M47.4502 40.5977C47.2057 40.98 47.0519 41.4087 46.9995 41.8538C46.9472 42.2989 46.9977 42.7495 47.1473 43.174L47.8208 41.074C47.5596 41.074 47.4676 40.8238 47.4512 40.5977" fill="#94A3B8"></path><path d="M31.9242 26.7672H27.9839C27.5794 26.7672 27.5717 26.6786 27.471 26.9444C27.3952 27.4372 27.3952 27.9378 27.471 28.4306V33.0996C27.3742 34.1048 27.3742 35.1156 27.471 36.1208C27.6897 37.1455 28.548 37.2027 29.4663 37.2027C30.5356 37.2027 31.5207 37.2516 31.8826 38.4387C32.531 36.2011 34.9221 38.0907 36.0165 36.7421C36.5807 36.0479 36.3281 34.4888 36.3281 33.6645V27.2029C36.3281 26.8724 36.4036 26.8724 36.1762 26.7755C35.8608 26.7311 35.5403 26.7311 35.2249 26.7755H31.8575L31.9252 26.7672H31.9242Z" fill="white"></path><path fill-rule="evenodd" clip-rule="evenodd" d="M31.9242 26.7672H27.9839C27.5794 26.7672 27.5717 26.6786 27.471 26.9444C27.3952 27.4372 27.3952 27.9378 27.471 28.4306V33.0996C27.3742 34.1048 27.3742 35.1156 27.471 36.1208C27.6897 37.1455 28.548 37.2027 29.4663 37.2027C30.5356 37.2027 31.5207 37.2516 31.8826 38.4387C32.531 36.2011 34.9221 38.0907 36.0165 36.7421C36.5807 36.0479 36.3281 34.4888 36.3281 33.6645V27.2029C36.3281 26.8724 36.4036 26.8724 36.1762 26.7755C35.8608 26.7311 35.5403 26.7311 35.2249 26.7755H31.8575L31.9252 26.7672H31.9242Z" stroke="white" stroke-width="0.03"></path><path d="M30.1147 35.2741C29.5757 35.2741 29.7276 34.5467 29.8621 34.2486C30.1137 33.7067 30.704 33.4889 31.1075 33.0929C31.2169 33.1658 31.1753 33.5055 31.2508 33.6181C31.3272 33.7307 31.6127 33.8683 31.7394 34.0224C31.8652 34.1757 31.8991 34.4581 32.0588 34.628C32.0588 34.3612 32.0588 34.7812 32.11 34.7895L31.4869 34.999C31.992 33.9089 29.4664 34.087 30.1147 35.2741ZM32.2697 34.3529C32.2116 34.1757 31.722 31.8735 32.3626 32.9719C32.325 33.0877 32.325 33.2116 32.3626 33.3273C32.3944 33.353 32.4347 33.367 32.4763 33.367C32.5179 33.367 32.5582 33.353 32.59 33.3273C32.6819 33.4003 32.859 33.416 32.9771 33.5212C33.1919 33.7021 33.3496 33.9366 33.4319 34.1997C33.4319 34.3206 33.2964 34.4904 33.3728 34.5717C33.3728 34.4821 33.5828 34.3778 33.5664 34.5227C33.5499 34.6677 33.3138 34.5874 33.457 34.7166C33.4983 34.6839 33.5476 34.6617 33.6003 34.652C33.726 34.9667 33.398 34.7655 33.3051 34.9187C33.3411 34.927 33.3785 34.927 33.4145 34.9187C33.4145 34.9187 32.8251 34.9187 32.7497 34.7969H33.0361C33.0613 34.7969 33.0361 34.555 32.9519 34.579C32.8677 34.603 32.649 34.7895 32.5058 34.8781C32.5134 34.7939 32.5524 34.7151 32.6155 34.6559C32.6787 34.5967 32.7619 34.5609 32.8503 34.555C32.9606 34.208 32.4294 34.555 32.4294 34.555C32.4294 34.555 32.4294 34.3123 32.32 34.2883L32.2358 34.3372L32.2697 34.3529ZM30.3082 27.6328C30.3837 27.6328 30.2492 28.3602 30.165 28.4405C29.8283 28.7479 29.2216 28.4894 29.0367 29.0304C28.9303 29.3765 29.0338 29.7504 29.3057 29.9996C29.446 30.0402 29.5893 30.0679 29.7354 30.0799C29.8196 30.0799 29.7354 30.2091 29.9125 30.2424C30.0983 30.2202 30.2821 30.1796 30.4592 30.1205C30.9053 30.0642 30.9817 30.1205 31.0659 30.5405C31.1501 30.9605 31.184 30.9042 30.9895 31.0418C30.6856 31.1405 30.3682 31.1987 30.047 31.2116C29.6173 31.0824 29.5506 30.5082 28.969 30.9772C28.7979 31.1334 28.6757 31.3318 28.6158 31.5504C28.5142 31.8495 28.4977 31.9787 28.6835 32.0996C28.6961 32.3175 28.6961 32.5363 28.6835 32.7541C28.7935 32.6668 28.8704 32.5475 28.9022 32.4144C28.9351 32.5527 28.9201 32.6975 28.8596 32.827C29.0667 32.6756 29.237 32.4827 29.3561 32.2612C29.3854 32.3336 29.3961 32.4118 29.3873 32.489C29.3786 32.5662 29.3506 32.6403 29.3057 32.7052C29.9202 32.5363 29.3822 31.8975 29.5418 31.4941C29.8534 30.751 29.8031 31.8329 29.8196 32.0267C29.8196 32.5843 30.2405 32.7624 29.9454 33.319C29.823 33.5026 29.7269 33.701 29.6599 33.9089C29.6009 34.1267 29.2728 34.5957 29.2893 34.7895H29.4664C29.4664 34.8301 29.4073 35.0554 29.3483 35.0554C29.0367 35.0554 29.3483 33.8526 28.7251 34.1997C29.1877 34.2643 28.9767 34.8375 29.0783 35.1283C29.1781 35.358 29.3667 35.5424 29.6049 35.6432C29.8432 35.7441 30.113 35.7537 30.3586 35.6701C30.3457 35.7257 30.318 35.7772 30.2782 35.8196C30.2383 35.8619 30.1877 35.8938 30.1312 35.912C30.1312 35.9683 30.5947 35.912 30.6363 35.912C30.6789 35.912 30.7718 36.1215 30.8724 36.1704C31.2885 36.2978 31.7239 36.3523 32.1604 36.332C32.3192 36.3598 32.4831 36.3434 32.6325 36.2846C32.7818 36.2258 32.9102 36.1272 33.0022 36.0006C33.1116 35.8714 33.1542 35.6941 33.3312 35.6212C33.5074 35.5483 33.7599 35.7828 33.9873 35.7911C33.9873 35.7911 34.5176 35.6295 34.5853 35.6129C34.8127 35.5566 35.074 35.5086 35.1408 35.2501C35.0827 35.2095 35.0401 35.2501 34.9976 35.3387C34.9976 35.2012 35.133 35.3387 34.9976 35.3387C34.9298 35.4357 34.9976 35.4754 34.9976 35.3387C35.0228 35.2624 35.0228 35.1806 34.9976 35.1043C35.005 35.1469 34.9985 35.1907 34.9789 35.2297C34.9594 35.2686 34.9277 35.3009 34.8882 35.3221C34.7953 35.4357 34.7702 35.3867 34.8205 35.1929C34.8205 35.3794 34.2573 35.4107 34.2312 35.1929C34.206 34.975 34.5515 34.8864 34.5766 34.9917C34.5766 34.8781 34.5766 34.7489 34.6947 34.7C34.7114 34.7342 34.72 34.7716 34.72 34.8094C34.72 34.8471 34.7114 34.8845 34.6947 34.9187C34.6947 34.7166 34.6947 34.6926 34.804 34.8615C34.9298 34.4258 34.147 34.9594 33.9622 34.8615C33.7773 34.7655 33.8189 34.232 33.7686 34.0547C33.667 33.6984 33.3225 33.2461 33.398 32.8427C33.5499 33.2147 34.6608 31.9621 34.8795 32.3987C34.9637 32.5759 34.6182 32.899 34.5176 32.9803C34.417 33.0606 34.5176 33.1012 34.5176 33.1012C34.5176 33.1012 34.3666 32.9563 34.266 33.1741C34.0889 33.5369 34.5689 33.4732 34.7953 33.319C35.0256 33.0836 35.1698 32.7836 35.2085 32.4633C35.4108 31.4701 34.6957 31.8578 34.0212 31.9621C34.0212 31.5679 33.9476 31.1765 33.8025 30.8073C33.938 30.7704 34.0647 30.7132 34.1809 30.6375C34.1809 30.6375 34.5776 30.8479 34.7876 30.6375C34.9976 30.4279 34.9056 29.8298 34.7286 29.5953C35.0905 29.5953 34.7286 29.4107 34.956 29.1762C34.7286 29.071 34.4334 29.1762 34.6192 28.8688C34.3241 28.7885 33.5248 28.627 33.2722 28.8688C33.2722 28.9418 33.3564 28.9741 33.457 28.9741C33.2209 28.9251 32.6152 29.2002 32.8842 29.2325C32.7081 29.4827 32.2533 29.1107 32.7835 29.4014C32.919 29.3368 32.4719 29.6119 32.5397 29.6276C32.4216 29.6276 31.9417 29.0461 31.992 28.9814C32.7584 29.3378 32.5813 27.5599 31.7143 28.231C32.6142 27.6411 32.5561 29.1273 32.1768 28.9251C32.2598 28.8686 32.3244 28.7909 32.3633 28.7009C32.4021 28.611 32.4136 28.5124 32.3965 28.4165C32.2707 28.7876 32.3965 28.4165 32.32 28.4165C32.3491 28.4839 32.3491 28.5596 32.32 28.6261C32.2934 28.5778 32.2738 28.5262 32.262 28.4728C32.0588 28.5134 31.8575 28.4728 31.7733 28.8531C31.6127 28.8531 31.7143 28.5697 31.5962 28.7562C31.5207 28.7562 31.6891 28.5217 31.7143 28.5051C31.6332 28.5541 31.5687 28.6243 31.5285 28.7073C31.3775 28.6667 31.5711 28.4488 31.6378 28.4248C31.5623 28.5291 31.4869 28.5541 31.4114 28.4894C31.3349 28.4248 31.8236 28.207 31.9165 28.1747C31.7481 28.23 31.4694 28.23 31.4278 28.3999C31.3853 28.5697 31.7646 28.675 31.5285 28.9261C31.2933 28.7073 30.9314 28.6907 30.6866 28.5217C30.4427 28.3519 30.4679 27.8673 30.3082 27.6328Z" fill="#94A3B8"></path><path d="M43.5435 39.6914L43.4506 39.732C43.4746 39.7818 43.5058 39.8281 43.5435 39.8695C43.5435 39.8289 43.6955 39.7883 43.6451 39.7237H43.5435V39.6914ZM43.5435 39.9655C43.3248 39.9655 43.35 39.6267 43.5435 39.6517C43.7371 39.6757 43.7032 39.8612 43.5435 39.9341V39.9664V39.9655ZM41.4214 35.8061C41.2202 35.8061 41.4214 35.9279 41.4214 35.9759C41.4214 36.0239 41.5734 35.903 41.523 35.831H41.4137L41.4214 35.8061ZM41.4137 36.0646C41.2027 36.0646 41.2202 35.7415 41.4137 35.7581C41.6072 35.7738 41.5821 35.9759 41.4214 36.0406L41.4137 36.0646ZM47.7877 41.064L47.1471 43.1483C46.8568 42.2806 46.9701 41.3363 47.4587 40.5554C47.4587 40.7658 47.5681 41.016 47.8293 41.04L47.7877 41.064ZM46.9875 41.4277C46.9081 41.6742 46.7485 41.8892 46.5327 42.0415C46.4442 41.33 46.5914 40.6099 46.9536 39.9821C47.0088 39.7403 47.0968 39.5067 47.2149 39.288C47.4336 39.0295 47.6774 39.1661 47.9474 38.9963C47.6184 39.8049 47.2991 40.6117 46.9701 41.4277H46.9875ZM46.7939 40.176C46.6544 40.6357 46.3966 41.0549 46.044 41.3954C45.6318 40.7335 46.524 39.1264 47.0794 38.7221C47.2991 39.2631 46.9962 39.6508 46.7765 40.176H46.7939ZM46.0363 40.2249C45.9559 40.3348 45.8592 40.4326 45.7498 40.5148C45.7692 39.9424 45.9463 39.3849 46.2627 38.8994C46.6498 38.351 46.4069 38.8994 46.8868 38.8347C46.6004 39.3037 46.3556 39.7966 46.045 40.2489L46.0353 40.2249H46.0363ZM45.8253 39.4403C45.7168 39.5965 45.5691 39.7243 45.3957 39.8123C45.4189 39.228 45.6279 38.6649 45.9937 38.1969C46.0072 38.4138 46.1688 38.5947 46.3904 38.6409C46.2462 38.9363 46.0566 39.2095 45.8253 39.4486V39.4412V39.4403ZM45.9346 38.1812C45.7101 38.6298 45.3637 39.012 44.9331 39.288C44.8151 38.7304 45.2195 38.2855 45.506 37.8498C45.509 37.8992 45.5228 37.9475 45.5466 37.9916C45.5703 38.0357 45.6033 38.0745 45.6437 38.1057C45.684 38.1369 45.7307 38.1597 45.7808 38.1727C45.8309 38.1857 45.8833 38.1886 45.9346 38.1812ZM44.5702 38.4314C44.5035 38.0437 44.8905 37.6966 45.177 37.4861C45.181 37.5234 45.1932 37.5595 45.2128 37.592C45.2324 37.6245 45.2589 37.6527 45.2907 37.6748C45.3224 37.6969 45.3587 37.7124 45.3971 37.7203C45.4355 37.7282 45.4752 37.7283 45.5137 37.7206C45.3202 38.076 44.9767 38.3354 44.5712 38.4314H44.5702ZM45.1683 37.4381C45.1683 37.5996 44.4522 37.7769 44.3264 37.7289C44.4028 37.5673 44.6041 37.236 44.8151 37.1953C45.026 37.1547 45.2447 37.1953 45.1683 37.4381ZM48.1661 37.8738C48.6122 38.2864 48.4187 39.0295 48.3093 39.4892C48.2512 39.7237 48.1245 40.8221 47.8632 40.9191C47.181 41.1858 47.8042 38.8754 47.9987 38.892C47.5855 38.892 47.2313 39.1578 47.1558 38.5763C46.912 38.868 46.0779 38.3824 46.0866 38.0437C45.8756 38.1323 45.8001 38.0437 45.6656 37.9144C45.6425 37.8893 45.6253 37.8597 45.6152 37.8277C45.605 37.7957 45.6021 37.762 45.6066 37.7289C45.6066 37.607 45.6066 37.5673 45.4295 37.6153C45.3851 37.5391 45.3347 37.4663 45.2786 37.3975C45.3879 37.511 45.0676 36.9535 45.0754 37.0338C45.3879 36.9129 45.6656 36.743 45.9685 36.6055C45.9145 36.7227 45.8902 36.8505 45.8978 36.9783C45.9054 37.1062 45.9445 37.2305 46.0121 37.3412C46.0794 37.4513 46.1732 37.5446 46.2857 37.6133C46.3983 37.682 46.5264 37.7242 46.6594 37.7363C47.24 37.7363 47.7287 37.2683 48.2 37.8332L48.1661 37.8738ZM40.6976 30.9922L42.2643 31.5091C42.3901 31.558 42.811 31.6227 42.8865 31.7196C42.9629 31.8165 42.7946 32.0584 43.08 32.2928C42.6094 32.248 42.1539 32.109 41.7434 31.8849C41.3329 31.6608 40.9765 31.3566 40.6976 30.9922ZM42.8952 32.9067C42.2773 32.8166 41.7085 32.5324 41.2792 32.099C41.7166 31.8811 42.3562 32.1479 42.7771 32.2688C43.4177 32.4627 44.0661 32.6399 44.7144 32.8181C44.4948 32.8901 44.3941 33.1328 44.1754 33.1808C43.7787 33.2861 43.2658 32.987 42.8952 32.8984V32.9067ZM41.5405 32.8504C42.2643 32.6648 44.0148 32.987 44.4357 33.6581C43.7709 33.8676 41.8521 33.5768 41.5395 32.8504H41.5405ZM43.7458 34.1667C43.1626 34.1018 42.6033 33.908 42.1124 33.6008C42.8201 33.5416 43.5332 33.5884 44.2257 33.7393C43.8551 34.0864 44.4193 34.2636 43.6868 34.199L43.7448 34.1667H43.7458ZM43.9983 34.7888C43.4611 34.7776 42.9407 34.6083 42.5081 34.3042C42.9629 34.0218 43.619 34.2156 44.1164 34.247C44.0717 34.3432 44.0614 34.4508 44.0873 34.5531C44.1132 34.6554 44.1738 34.7467 44.2596 34.8128L43.9983 34.7888ZM43.7797 35.3621C43.3718 35.3727 42.9758 35.2305 42.6765 34.9661C43.1733 34.7995 43.7073 34.7607 44.2248 34.8535C44.1854 34.8861 44.1538 34.9265 44.1322 34.9718C44.1105 35.0171 44.0993 35.0663 44.0993 35.1161C44.0993 35.1659 44.1105 35.2151 44.1322 35.2604C44.1538 35.3057 44.1854 35.346 44.2248 35.3787C44.0717 35.3544 43.9154 35.3544 43.7622 35.3787L43.7797 35.3621ZM43.1816 35.7664C43.3424 35.6414 43.5286 35.5496 43.7285 35.4966C43.9283 35.4437 44.1375 35.4309 44.3428 35.459C44.3125 35.4841 44.2882 35.5152 44.2715 35.5501C44.2548 35.5849 44.2462 35.6228 44.2462 35.6612C44.2462 35.6995 44.2548 35.7374 44.2715 35.7723C44.2882 35.8071 44.3125 35.8382 44.3428 35.8633C43.9896 35.9519 43.501 36.0479 43.1816 35.7664ZM43.6364 36.3719C43.7042 36.1135 44.3941 35.7664 44.4783 36.0166C44.6631 36.4449 43.7796 36.4042 43.6364 36.3719ZM42.9204 32.0104V31.7519C43.7622 32.0824 45.2621 32.2116 45.6821 33.1568C45.9685 33.7947 45.5224 34.0135 45.1015 34.3771C44.9771 34.4738 44.8839 34.6021 44.8328 34.7471C44.7816 34.8922 44.7746 35.0481 44.8124 35.1968C44.8503 35.3455 44.9315 35.481 45.0467 35.5875C45.1619 35.694 45.3064 35.7672 45.4634 35.7987C45.1683 35.9436 44.8576 36.0646 44.5712 36.2261C44.4948 36.1458 44.4783 35.903 44.4619 35.879C44.4027 35.7919 44.3465 35.7029 44.2935 35.6122L44.3854 35.4756L44.217 35.3464C44.217 35.1276 44.0148 35.0307 44.3186 34.8608C44.0322 34.6596 44.1154 33.731 44.4948 33.7144C44.0322 33.2704 44.4948 33.2058 44.7396 32.9067C44.6302 33.0765 42.9707 32.3085 42.8788 32.099L42.9204 32.0104ZM42.4404 43.1317C42.2469 43.4391 42.0949 44.4083 41.4214 43.9237C41.194 43.7539 41.2531 43.9237 41.2869 43.6246C41.3162 43.4852 41.3864 43.3565 41.4892 43.2536C41.7504 43.0191 42.1124 43.1077 42.4404 43.0597V43.1317ZM42.9707 42.8982C42.9707 43.1806 42.7191 43.2129 42.5081 43.0357C42.6668 43.0052 42.8226 42.9591 42.9707 42.8972V42.8982ZM38.4497 43.6006L39.2916 41.9852C39.9061 42.4856 40.6976 42.5502 40.2515 43.4308C40.1761 43.5766 39.9486 44.0853 39.7967 44.1499C39.4677 44.2634 38.7274 43.7299 38.4497 43.6006ZM38.1546 44.869L36.4708 44.0613C36.9005 43.98 37.1279 43.7705 37.5827 43.8748C37.8275 43.9256 38.0569 44.028 38.2562 44.1739L38.4836 44.2791L38.1546 44.869ZM30.9977 44.6908C30.6728 44.8114 30.3225 44.8567 29.9756 44.823C29.6287 44.7893 29.2952 44.6776 29.0024 44.497C29.4233 44.2957 31.7312 42.8816 32.0505 43.4151C32.3699 43.9477 31.3093 44.5293 30.9977 44.6908ZM31.0993 42.9545L28.8843 44.0363C28.9652 43.5191 29.2191 43.0405 29.6081 42.672C30.1471 42.3083 30.5942 42.7929 31.0983 42.9711V42.9545H31.0993ZM34.5171 39.4975C34.967 39.3376 35.4548 39.3013 35.9252 39.3927C36.3956 39.4841 36.8297 39.6995 37.1782 40.0144L33.4904 41.8071C33.5659 41.0483 33.6588 39.8529 34.5171 39.4975ZM33.6753 42.3083L37.5314 40.4668C37.694 41.3769 37.3379 42.3 36.5976 42.8899C35.6116 43.4391 34.5171 42.7929 33.6753 42.3083ZM18.3929 38.1729C17.938 38.2218 17.8287 38.9806 17.2317 38.6335C16.9365 38.4637 17.0043 38.2458 16.9617 37.9624C17.0074 37.9397 17.0429 37.9018 17.0615 37.856C17.0802 37.8102 17.0809 37.7594 17.0633 37.7132L16.9365 37.608C16.7256 37.0578 16.4478 36.7273 16.6927 36.1052C16.7844 35.8752 16.9323 35.6695 17.1242 35.5051C17.3161 35.3407 17.5463 35.2223 17.7958 35.1599C18 35.1433 18.2032 35.1082 18.4016 35.0547C18.6454 34.9661 18.6967 34.6273 19.1176 34.7565C19.5386 34.8858 19.4457 35.1359 19.4883 35.4184C19.3615 35.5476 19.3702 35.6529 19.4883 35.7415C19.5521 35.8126 19.5928 35.8993 19.6053 35.9926C19.8182 36.4375 19.7989 36.9526 19.5531 37.3827C19.4326 37.5941 19.262 37.7757 19.0548 37.9129C18.8476 38.0501 18.6097 38.1391 18.36 38.1729H18.3929ZM48.916 34.6107C48.8221 34.4483 48.6923 34.3074 48.5356 34.1976C48.3789 34.0878 48.199 34.0119 48.0085 33.975C47.8179 33.9381 47.6213 33.9412 47.4321 33.984C47.243 34.0268 47.0658 34.1084 46.913 34.223C46.6487 34.5312 46.4431 34.8811 46.3053 35.2569C46.0779 35.6445 45.7043 35.9335 45.2612 36.0646C42.9378 37.139 40.7228 38.2698 38.4749 39.3683C38.2726 38.1406 37.7927 36.5335 38.8958 35.5476C39.3255 35.1682 39.999 34.9827 40.3609 35.5476C40.597 35.9113 40.3609 36.5012 40.7905 36.7753C40.7905 36.5409 40.7315 36.0646 40.9841 35.9196C41.0653 36.2944 41.2008 36.6553 41.3885 36.9932C41.4727 36.5335 41.9111 36.3636 41.9014 35.8467C41.8688 35.6101 41.7864 35.3823 41.6592 35.1769C41.532 34.9715 41.3626 34.7927 41.1611 34.6513C40.7789 34.3848 40.3255 34.2267 39.8532 34.1952C39.3808 34.1636 38.9088 34.26 38.4913 34.4732C36.976 35.2809 36.8831 37.2923 37.1947 38.7304C36.6883 38.4095 36.0971 38.2316 35.4893 38.2172C34.8816 38.2029 34.2819 38.3526 33.7594 38.6492C32.7918 39.2954 32.4879 40.5231 32.337 41.5892C31.4951 41.3068 30.6532 41.5892 29.853 41.2662C29.0527 40.9431 28.1015 40.4585 27.2257 40.0311C25.2052 39.1338 23.1925 38.2126 21.1546 37.3486L21.7613 36.1375C20.9194 35.7581 20.7511 35.1849 20.4221 34.4575C20.4221 34.4085 20.2711 34.4011 20.2459 34.3522C20.2208 34.3042 20.2875 34.199 20.2459 34.0615C20.205 33.8568 20.1217 33.6619 20.0011 33.4882C19.6228 33.0276 19.345 33.2704 18.9406 33.4882C18.8148 33.5528 18.7809 33.6331 18.6541 33.6738C18.5283 33.7144 18.4441 33.5934 18.3929 33.6091C18.2845 33.6433 18.18 33.6895 18.0813 33.7467C18.0232 33.7467 17.9381 33.9322 17.9129 33.9322C17.8877 33.9322 17.6187 33.8676 17.492 33.8676C17.2307 33.8805 16.9772 33.9608 16.7594 34.1021C16.4149 34.3522 16.4565 34.8128 16.0859 35.0067C15.8924 35.1036 15.724 35.0067 15.5392 35.1682C15.454 35.256 15.3988 35.3663 15.3806 35.4846C15.3625 35.6029 15.3823 35.7237 15.4376 35.831C15.4879 36.0249 15.5982 36.0895 15.5808 36.3156C15.5644 36.5418 15.3292 36.743 15.2866 36.9775C15.1763 37.5184 15.6989 37.704 15.8672 38.1406C15.9988 38.5117 16.1092 38.8883 16.1962 39.2714C16.3559 39.9258 16.6752 40.0791 17.2994 39.78C17.4736 39.6821 17.6603 39.6037 17.8539 39.5464C18.0058 39.5058 18.0813 39.5464 18.2409 39.5058C18.4016 39.4652 18.4103 39.2954 18.6706 39.2474C18.9318 39.1984 19.1002 39.2474 19.2434 39.2474C19.4022 39.2239 19.5647 39.2404 19.7147 39.2954C19.9179 39.3526 19.9847 39.5215 20.2034 39.384C20.4221 39.2474 20.2963 38.5763 20.6156 38.3824C20.9359 38.1886 21.4575 38.6981 21.7187 38.8107C22.4096 39.1421 23.1248 39.4412 23.8244 39.7477L28.8756 42.0092C28.344 42.5218 28.0013 43.1853 27.8992 43.8997C26.8977 43.2286 25.5836 42.7606 24.4805 43.512C23.7315 44.0206 23.0328 45.1274 23.715 45.9351C23.7764 45.5549 23.9374 45.1956 24.1832 44.8906C24.429 44.5856 24.7516 44.3448 25.1211 44.1905C25.9533 43.932 26.8667 44.1166 27.5209 44.6751C27.0661 44.893 22.8557 46.7585 23.0667 47.0982C23.386 47.5828 27.2761 45.3047 27.7899 45.0545C27.8963 45.8853 27.5809 46.7161 26.9393 47.2838C26.5817 47.5028 26.1695 47.6272 25.7449 47.6442C25.3203 47.6613 24.8986 47.5703 24.523 47.3807C24.8346 48.4792 26.4681 48.5438 27.3525 48.1321C27.8249 47.8424 28.205 47.4346 28.4514 46.9532C28.6977 46.4718 28.801 45.9351 28.7498 45.4016C29.2902 45.6864 29.9066 45.813 30.522 45.7658C31.1374 45.7185 31.7245 45.4994 32.2102 45.1357C32.4328 44.9483 32.6273 44.7333 32.7908 44.497C32.8624 44.3576 32.9447 44.2219 33.0356 44.0936C33.2795 43.8434 33.2204 43.908 33.5824 44.0936L36.108 45.2004C37.5825 45.9602 39.1009 46.6397 40.656 47.2358C41.0934 47.3724 41.8685 47.413 41.733 46.7345C41.6324 46.2499 40.8912 46.1124 40.5292 45.9268C41.077 44.8283 41.5395 46.2656 42.1627 45.8299C42.5081 45.5954 42.7771 44.772 42.9465 44.4L43.3413 43.4797C43.5271 43.0514 43.5861 43.0671 43.1391 42.8659C43.5297 42.6404 43.8557 42.3262 44.0879 41.9512C44.3201 41.5762 44.4512 41.1521 44.4696 40.7169C44.4396 40.2862 44.2551 39.8784 43.9471 39.5621C43.5184 39.1015 43.1052 39.4006 42.5672 39.1578C42.5672 39.2871 43.1652 40.1271 43.2494 40.0874C42.9794 40.2083 42.601 39.8935 42.4075 39.7477C42.4075 40.2489 43.0974 40.4501 43.2494 40.8868C43.4506 41.5163 42.7771 41.8717 42.2304 41.9363C40.7063 42.1145 39.7048 40.7732 38.7187 39.8686C40.9502 38.8107 43.2319 37.8175 45.4547 36.6867C45.7658 36.4979 46.1166 36.3765 46.4823 36.3313C46.9839 36.3653 47.4874 36.3653 47.989 36.3313C48.4012 36.2935 48.767 36.0636 48.9664 35.7165C49.0652 35.5454 49.1191 35.354 49.1235 35.1587C49.1279 34.9634 49.0826 34.77 48.9915 34.595L48.916 34.6107Z" fill="#F47048"></path></svg>
