<svg xmlns="http://www.w3.org/2000/svg" width="160" height="46" viewBox="0 0 160 46" fill="none">
  <g clip-path="url(#clip0_676_1184)">
    <path fill-rule="evenodd" clip-rule="evenodd" d="M149.323 4.451L160.002 0.132661C159.267 2.39037 153.166 19.9371 137.555 32.5566C141.956 24.7443 146.359 12.6018 148.45 6.83515L148.451 6.83467L148.451 6.83376L148.453 6.82647C148.818 5.82144 149.112 5.01066 149.323 4.451ZM73.1461 13.3097H82.5756L71.0273 29.2622L82.9636 45.793H73.595L66.3272 35.7541L59.06 45.793H49.6914L61.6277 29.2622L50.0788 13.3097H59.5083L66.3272 22.7533L73.1461 13.3097ZM109.412 25.815C109.661 24.8646 110.023 24.0159 110.498 23.2693C110.973 22.5222 111.545 21.8829 112.212 21.3515C112.88 20.8202 113.621 20.413 114.436 20.1295C115.25 19.8466 116.121 19.7054 117.049 19.7054C121.122 19.7054 123.691 21.7418 124.755 25.815H109.412ZM116.88 12.8148C112.059 12.8148 108.19 14.4101 105.271 17.6007C102.374 20.8371 100.926 25.0685 100.926 30.2954C100.926 33.3432 101.428 36.0408 102.426 38.3928H90.6488V13.2999H83.0156V45.8086L104.118 45.5748L104.004 41.2531C104.428 41.8624 104.894 42.4429 105.406 42.9907C106.168 43.7988 107.002 44.4894 107.893 45.0886C116.998 43.9676 124.659 41.0125 131.066 37.1132L126.451 34.5387C124.89 36.9822 123.499 38.6577 122.277 39.5623C121.032 40.4676 119.459 40.9199 117.558 40.9199C115.114 40.9199 113.112 40.1282 111.55 38.5436C109.989 36.937 109.106 34.7758 108.903 32.0607H128.794L131.14 37.068C133.24 35.785 135.208 34.4043 137.044 32.9513L128.338 12.825C128.338 12.825 117.933 12.8148 116.88 12.8148ZM32.8399 21.3612C32.1724 21.8932 31.6009 22.5325 31.126 23.279C30.6511 24.0256 30.2886 24.8743 30.0401 25.8247H45.3821C44.3188 21.7515 41.7505 19.7151 37.6772 19.7151C36.7494 19.7151 35.8781 19.8563 35.0632 20.1392C34.2489 20.4227 33.508 20.8299 32.8399 21.3612ZM47.0797 34.5484L53.5287 38.1461C52.5331 39.8437 51.481 41.2978 50.3719 42.508C49.2634 43.7187 48.0752 44.7143 46.808 45.4953C46.6437 45.5965 46.4747 45.6885 46.3056 45.7805C46.2615 45.8045 46.2174 45.8285 46.1733 45.8527C40.4923 45.8725 21.3752 45.8663 21.3752 45.8663V26.5396C21.3752 26.5396 21.8806 19.7693 14.5382 19.7693C6.99369 19.7693 7.75718 26.5617 7.75718 26.5617V45.8443H0.0110432V26.5396C0.0110432 26.5396 -0.013804 26.1212 0.0110432 25.4396V12.8245H14.8703L14.877 12.8364C17.4578 12.8149 19.9035 13.0786 21.5717 13.5688C24.0005 14.2826 25.2852 15.0546 26.876 16.6482C29.664 14.1053 33.2042 12.8245 37.5073 12.8245C42.3728 12.8245 46.2196 14.3747 49.0482 17.4749C51.8543 20.552 53.257 24.8184 53.257 30.2712L53.2231 32.0704H29.5307C29.7346 34.7861 30.6167 36.9467 32.1781 38.5539C33.7395 40.1379 35.7425 40.9296 38.186 40.9296C40.0869 40.9296 41.6601 40.4773 42.9042 39.572C44.1262 38.6674 45.5182 36.9924 47.0797 34.5484Z" fill="url(#paint0_linear_676_1184)"/>
  </g>
  <defs>
    <linearGradient id="paint0_linear_676_1184" x1="160.002" y1="23.0001" x2="8.85263e-07" y2="23.0001" gradientUnits="userSpaceOnUse">
      <stop stop-color="#CFFF06"/>
      <stop offset="0.494792" stop-color="#00D5E0"/>
      <stop offset="1" stop-color="#00007C"/>
    </linearGradient>
    <clipPath id="clip0_676_1184">
      <rect width="160" height="46" fill="white"/>
    </clipPath>
  </defs>
</svg>