<svg xmlns="http://www.w3.org/2000/svg" width="256" height="256" viewBox="0 0 100 100"><defs><linearGradient id="a" x1="50" x2="50" y1="0" y2="100" gradientTransform="rotate(-90 21.068 137.494) scale(2.17333)" gradientUnits="userSpaceOnUse" spreadMethod="pad"><stop offset="0" style="stop-color:#38bdf8"/><stop offset="1" style="stop-color:#057aff"/></linearGradient></defs><rect width="100" height="100" rx="20" style="fill:url(#a);opacity:1"/><path fill="#FFF" d="M72.799 29.308c-6.298 0-12.487 3.934-17.26 8.072a61.796 61.796 0 0 1 3.414 4.06 44.495 44.495 0 0 0 2.181 2.625c3.679-3.227 8.005-6.083 11.665-6.083 6.221 0 11.28 5.059 11.28 11.28 0 6.22-5.059 11.28-11.28 11.28-6.955 0-16.323-10.287-19.055-13.894-1.34-1.774-13.457-17.34-25.98-17.34-11.005 0-19.958 8.953-19.958 19.958 0 11.003 8.953 19.953 19.958 19.953 6.115 0 12.122-3.715 16.837-7.721a63.178 63.178 0 0 1-3.736-4.415 42.353 42.353 0 0 0-1.857-2.253c-3.584 3.072-7.722 5.712-11.244 5.712-6.222 0-11.282-5.06-11.282-11.28 0-6.221 5.06-11.28 11.282-11.28 6.958 0 16.321 10.285 19.053 13.893 1.34 1.774 13.456 17.34 25.982 17.34 11.016-.012 19.942-8.937 19.954-19.953-.009-11.016-8.938-19.945-19.954-19.954Z"/></svg>