<svg width="124" height="124" xmlns="http://www.w3.org/2000/svg" xmlns:xlink="http://www.w3.org/1999/xlink" viewBox="0 0 787 805" fill="none">
    <path d="M453.699 12.2565C452.209 5.25342 445.99 0 438.542 0H350.831C343.383 0 337.163 5.2535 335.674 12.2566C260.968 28.7127 197.014 76.6835 138.84 148.912C65.9093 239.464 69.2424 369.335 80.0251 422.951L86.2226 438.583C55.1685 481.654 0 582.404 0 682.268C0 798.763 189.784 801.839 229.981 801.188L230.004 801.243H559.37L559.377 801.227C605.109 801.646 786.405 796.129 786.405 682.268C786.405 584.419 733.441 485.717 702.09 441.259L709.349 422.951C720.131 369.335 723.462 239.464 650.533 148.912C592.36 76.6835 528.405 28.7127 453.699 12.2565Z" fill="#59596D"/>
    <path d="M138.776 152.13C211.707 61.5779 293.725 9.15332 394.623 9.15332C495.52 9.15332 577.538 61.5779 650.469 152.13C723.398 242.682 720.067 372.553 709.285 426.169L559.305 804.46H394.623H229.939L79.9604 426.169C69.1777 372.553 65.8446 242.682 138.776 152.13Z" fill="#424151"/>
    <path d="M106.801 302.945C114.418 268.319 141.623 201.597 197.172 142.696M284.855 74.4414C265.225 85.2574 247.461 97.5214 231.439 110.674" stroke="white" stroke-width="30.9914" stroke-linecap="round" stroke-linejoin="round"/>
    <path d="M0 685.483C0 581.249 60.1023 476.05 90.1538 436.479C133.227 547.47 231.395 789.72 237.405 804.193C237.405 804.193 0 815.776 0 685.483Z" fill="#040305"/>
    <path d="M786.366 685.483C786.366 581.249 726.266 476.05 696.212 436.479C653.139 547.47 554.971 789.72 548.961 804.193C548.961 804.193 786.366 815.776 786.366 685.483Z" fill="#040305"/>
    <path d="M394.673 531.439V804.454H203.207L181.008 759.943L394.673 531.439Z" fill="#424151"/>
    <path d="M394.625 531.439V804.454H586.091L608.29 759.943L394.625 531.439Z" fill="#424151"/>
    <path d="M311.578 697.649V759.969" stroke="black" stroke-width="30.9914"/>
    <path d="M465.93 697.649V759.969" stroke="black" stroke-width="30.9914"/>
    <path d="M394.625 664.985V765.883" stroke="black" stroke-width="30.9914"/>
    <path fill-rule="evenodd" clip-rule="evenodd" d="M438.481 3.23242C447.038 3.23242 453.976 10.1701 453.976 18.7281V456.613C453.976 465.171 447.039 472.108 438.481 472.108H350.769C342.212 472.108 335.273 465.171 335.273 456.613V18.7281C335.273 10.1701 342.212 3.23242 350.769 3.23242H438.481Z" fill="#59596D"/>
    <path d="M237.424 335.575C322.89 335.575 377.89 402.328 394.706 435.704C411.521 402.328 466.521 335.575 551.987 335.575C637.452 335.575 688.495 402.328 703.333 435.704L584.63 733.231L394.706 524.39L204.781 733.231L86.0781 435.704C100.916 402.328 151.959 335.575 237.424 335.575Z" fill="#282732"/>
    <mask id="mask0_1414_3403" style="mask-type:alpha" maskUnits="userSpaceOnUse" x="86" y="335" width="618" height="399">
        <path d="M237.424 335.575C322.89 335.575 377.89 402.328 394.706 435.704C411.521 402.328 466.521 335.575 551.987 335.575C637.452 335.575 688.495 402.328 703.333 435.704L584.63 733.231L394.706 524.39L204.781 733.231L86.0781 435.704C100.916 402.328 151.959 335.575 237.424 335.575Z" fill="#282732"/>
    </mask>
    <g mask="url(#mask0_1414_3403)">
        <path fill-rule="evenodd" clip-rule="evenodd" d="M418.346 362.816C426.904 362.816 433.842 369.754 433.842 378.312V579.756C433.842 588.314 426.904 595.252 418.346 595.252H371.859C363.301 595.252 356.363 588.314 356.363 579.756V378.312C356.363 369.754 363.301 362.816 371.859 362.816H418.346Z" fill="#3C3B4C"/>
    </g>
    <path d="M157.312 430.556V442.426C157.312 485.038 191.857 519.583 234.469 519.583C277.082 519.583 311.626 485.038 311.626 442.426V430.556" stroke="black" stroke-width="46.487"/>
    <path d="M477.812 430.556V442.426C477.812 485.038 512.357 519.583 554.969 519.583C597.582 519.583 632.126 485.038 632.126 442.426V430.556" stroke="black" stroke-width="46.487"/>
    <path d="M395.102 595.27C416.498 595.27 433.842 577.926 433.842 556.531C433.842 535.136 416.498 517.792 395.102 517.792C373.707 517.792 356.363 535.136 356.363 556.531C356.363 577.926 373.707 595.27 395.102 595.27Z" fill="#9898AA"/>
    <path d="M201.399 804.484C222.794 804.484 240.139 787.14 240.139 765.745C240.139 744.35 222.794 727.006 201.399 727.006C180.004 727.006 162.66 744.35 162.66 765.745C162.66 787.14 180.004 804.484 201.399 804.484Z" fill="#9898AA"/>
    <path d="M593.204 804.484C614.599 804.484 631.943 787.14 631.943 765.745C631.943 744.35 614.599 727.006 593.204 727.006C571.809 727.006 554.465 744.35 554.465 765.745C554.465 787.14 571.809 804.484 593.204 804.484Z" fill="#9898AA"/>
</svg>
