<svg xmlns="http://www.w3.org/2000/svg" width="512" height="512" viewBox="0 0 512 512"><path fill="#0F579C" d="M512 472c0 22.1-17.9 40-40 40H40c-22.1 0-40-17.9-40-40V40C0 17.9 17.9 0 40 0h432c22.1 0 40 17.9 40 40v432z"/><path fill-rule="evenodd" clip-rule="evenodd" fill="#E7590F" d="M117.6 156.1h.1c11 8.5 22.3 17.1 33.5 25.5.7.5 1.5 1.1 2 1.8-4.1 25.6-9.2 52-13.3 78.3-1.3 8.6-2.7 17-5.6 24.5-5.6 14.2-15.8 25.7-28.5 32.8-12.9 7.2-29.9 11.9-50.2 9.7v-.3c2.1-11.6 4-24.1 6.1-35.7 15.9.6 27.6-5 33.7-14.5 3.3-5.1 3.9-11.9 5.2-18.9 6-33.4 11.8-69.3 17-103.2z"/><path fill-rule="evenodd" clip-rule="evenodd" fill="#FFF" d="M248.3 206.5h75.4c5.1 9.5 9.8 19.3 14.7 29h-56.3c-1.1 5.3-1.9 11-2.8 16.5 8.3.2 17.3.1 26.2.1 1.3 0 3-.3 3.7 0 .7.2 1.6 2.3 2.1 3.3 4.7 7.9 9.2 15.9 13.6 23.9h-49.8c-1.1 6.2-1.8 12.7-2.6 19.2 11.9.3 24.3 0 36.4.1 6.6 9.5 12.7 19.6 19.2 29.2 15.3-21 30.4-42.3 45.5-63.5-9.9-19.4-20.3-38.7-30-57.9h40.3c4.4 10.3 8.5 20.8 13 31 6.7-10.2 12.7-20.9 19.4-31H460c.1.3-.2.7-.3.9-1.4 2.1-3.3 4.2-4.8 6.4-2.7 3.7-5.4 7.4-8.2 11-2.7 3.6-5.4 7.4-8.1 11.1-7.1 10-14.7 19.7-21.8 29.6 11.5 21.1 23.6 41.6 35.1 62.7-13.8-.2-28.4-.2-42.3 0-5.4-11.2-10.6-22.8-16.1-33.9-6.7 11.3-13.4 22.6-20.2 33.8H229.4c6.2-40.5 12.3-80.5 18.7-121.2.1-.1.1-.1.2-.3z"/><path fill-rule="evenodd" clip-rule="evenodd" fill="#E7590F" d="M231.1 208.2c-1.9 12.5-3.9 24.1-5.8 36.6-8.4-1.1-15.4 1.4-20.5 5.3-4.8 3.7-9 9-9.6 16.5-.4 6.1 1.5 10.7 3.8 14.6 4.2 5.6 10.2 9.8 18.4 11-1.9 11.9-3.8 24.5-6 36.5-8.8-1-16.3-3.7-22.9-7.1-6.5-3.4-12.5-7.7-17.4-12.8-4.8-5-9.1-11.1-12-18.2-3.1-7.3-5-15.6-4.5-25.2.5-9.1 3-17 6.6-23.6 7.3-13.2 17.6-22.2 31.8-28.5 10.1-4.3 23.9-7.2 38.1-5.1z"/></svg>